<svg width="23" height="34" viewBox="0 0 23 34" fill="none" xmlns="http://www.w3.org/2000/svg">
<path d="M11.417 0.5C11.7781 0.5 12.2122 0.596886 12.5928 0.896484C12.9675 1.19164 13.3411 1.72315 13.5205 2.68652L13.5215 2.68848C14.3232 6.91036 16.5997 9.98417 18.5947 12.9111C20.6012 15.8548 22.3302 18.6553 22.335 22.4453C22.2469 25.2516 21.0498 27.909 19.0059 29.834C16.962 31.7588 14.2381 32.7949 11.4316 32.7148L11.417 32.7139L11.4033 32.7148C8.59691 32.7949 5.87297 31.7588 3.8291 29.834C1.91294 28.0293 0.740876 25.581 0.529297 22.9697L0.5 22.4453C0.504808 18.6553 2.23378 15.8548 4.24023 12.9111C6.23531 9.98416 8.51175 6.91037 9.31348 2.68848L9.31445 2.68652C9.49392 1.72307 9.86741 1.19162 10.2422 0.896484C10.6226 0.597002 11.0559 0.500075 11.417 0.5ZM10.917 3.0127C10.0414 6.71129 8.37128 10.1751 6.02148 13.1631L6.01172 13.1758L6.00293 13.1875C3.96198 16.1355 2.0948 18.8351 2.09473 22.4609V22.4717L2.0957 22.4814C2.19291 24.8641 3.2306 27.1114 4.98145 28.7305C6.72877 30.3461 9.044 31.2044 11.4219 31.1191C13.7936 31.1907 16.0982 30.3245 17.835 28.707C19.5768 27.0846 20.6065 24.8385 20.6982 22.46V22.4404C20.6982 18.8149 18.8525 16.1171 16.7881 13.165L16.7812 13.1543L16.7725 13.1436C14.4391 10.1569 12.783 6.69916 11.917 3.00977V2.86426H10.917V3.0127Z" fill="white" stroke="white"/>
</svg>
