<svg width="17" height="17" viewBox="0 0 17 17" fill="none" xmlns="http://www.w3.org/2000/svg">
<path fill-rule="evenodd" clip-rule="evenodd" d="M14.1286 3.45217L13.0625 0L11.9964 3.45217L9.9339 4.43438L12.0056 5.42071L13.0625 8.44113L14.1194 5.42071L16.1911 4.43438L14.1286 3.45217ZM12.7536 4.10667L13.0625 3.10658L13.3714 4.10712L14.0589 4.43438L13.3806 4.7575L13.0625 5.66592L12.7444 4.7575L12.0661 4.43438L12.7536 4.10667Z" fill="#7069BC"/>
<path d="M5.95831 4.53246L6.41665 2.69913L6.87498 4.53246L8.24998 4.99079L6.87498 5.44913L6.41665 7.28246L5.95831 5.44913L4.58331 4.99079L5.95831 4.53246Z" fill="#7069BC"/>
<path fill-rule="evenodd" clip-rule="evenodd" d="M3.20833 15.4179V15.5306C3.20833 15.7737 3.11176 16.0069 2.93985 16.1788C2.76794 16.3507 2.53478 16.4473 2.29167 16.4473H0.916667C0.673552 16.4473 0.440394 16.3507 0.268485 16.1788C0.0965771 16.0069 0 15.7737 0 15.5306V10.4913C0 10.2481 0.0965771 10.015 0.268485 9.84307C0.440394 9.67116 0.673552 9.57458 0.916667 9.57458H2.29167C2.49811 9.5745 2.69854 9.6441 2.8605 9.77211C3.02245 9.90013 3.13646 10.0791 3.18404 10.28C3.79087 10.0613 4.49992 9.801 4.71671 9.702C4.90096 9.61813 5.11362 9.58971 5.29054 9.57917C5.47312 9.57032 5.65609 9.57353 5.83825 9.58879C6.04222 9.60505 6.24533 9.63074 6.44692 9.66579L6.45746 9.66763L6.46067 9.66808H6.46204L6.47029 9.66992L9.53654 10.3574L9.55533 10.3638L9.56037 10.3657L9.58146 10.3721C9.71374 10.4109 9.84735 10.445 9.98204 10.4743C10.2456 10.5316 10.5779 10.5852 10.8872 10.5852C11.1732 10.5852 11.4693 10.692 11.627 10.9817C11.7627 11.2301 11.731 11.5033 11.6806 11.6921C11.6169 11.9277 11.4858 12.1752 11.3195 12.3855C11.544 12.3008 11.7902 12.2004 12.0542 12.0922L12.1105 12.0693C12.8544 11.7636 13.7362 11.4015 14.5145 11.2732C15.4037 11.126 16.0504 11.4487 16.3437 12.0212C16.605 12.5308 16.5445 13.1995 16.1512 13.6024C16.0527 13.7037 15.9023 13.81 15.7515 13.9077C15.5902 14.0126 15.3918 14.1304 15.1713 14.256C14.6648 14.5396 14.1521 14.8119 13.6336 15.0728C12.5464 15.6241 11.407 16.1604 11.0449 16.2928C10.6251 16.4464 10.1741 16.461 9.74096 16.4386C9.47939 16.4223 9.21823 16.4002 8.95767 16.3721C8.7669 16.3524 8.57592 16.3348 8.38475 16.3194C7.50108 16.2525 6.82275 16.0366 6.1985 15.8382L6.12242 15.8139C5.47708 15.6095 4.87667 15.4275 4.08146 15.3954C3.89996 15.3881 3.53696 15.4023 3.20833 15.4179ZM5.09667 10.5357C5.12646 10.522 5.20438 10.5023 5.34325 10.494C5.47342 10.4862 5.62192 10.4913 5.76721 10.5023C5.94106 10.5162 6.11418 10.5381 6.28604 10.5678H6.28742L9.29729 11.2429L9.31792 11.2493C9.47274 11.2949 9.62913 11.335 9.78679 11.3694C10.0549 11.4281 10.4147 11.4895 10.7809 11.5C10.7482 11.5883 10.7043 11.6719 10.6503 11.7489C10.577 11.8553 10.4967 11.9373 10.4307 11.9845C10.2401 12.1211 10.0861 12.1779 9.99258 12.2022C9.96074 12.2109 9.92825 12.2171 9.89542 12.2205H9.88533L7.42775 12.1912L7.34067 13.1005L7.36496 13.1051L7.43508 13.1175L7.68992 13.1624C7.90396 13.2 8.19775 13.2504 8.51767 13.3027C9.14742 13.4053 9.90642 13.519 10.3372 13.5451C10.6352 13.5635 10.9817 13.4718 11.3039 13.3641C11.6398 13.2518 12.0198 13.0964 12.402 12.9397C13.189 12.617 13.9906 12.2884 14.6639 12.177C15.246 12.0808 15.4536 12.2934 15.5279 12.4387C15.6347 12.6473 15.5769 12.8787 15.4949 12.9621C15.4752 12.9828 15.4032 13.041 15.2529 13.1386C15.1126 13.2289 14.9316 13.3375 14.7189 13.458C14.225 13.7346 13.7249 14.0002 13.2192 14.2546C12.1229 14.8106 11.0321 15.3207 10.7296 15.4316C10.4848 15.5215 10.1819 15.543 9.78817 15.5228C9.55623 15.5092 9.3247 15.4895 9.09379 15.4637C8.88078 15.4413 8.66749 15.4217 8.45396 15.405C7.67846 15.3464 7.08904 15.1589 6.457 14.9582L6.39971 14.9398C5.74521 14.7322 5.04487 14.5163 4.11858 14.4792C3.91004 14.471 3.53879 14.4838 3.20833 14.4994V11.2448C3.85275 11.0142 4.80654 10.6682 5.09667 10.5357ZM2.29167 10.4908H0.916667V15.5302H2.29167V10.4908Z" fill="#7069BC"/>
</svg>
