<svg width="46" height="42" viewBox="0 0 46 42" fill="none" xmlns="http://www.w3.org/2000/svg">
<mask id="path-1-inside-1_6001_2" fill="white">
<path d="M2.05662 2.05662V0C1.51117 0 0.988063 0.216679 0.602371 0.602371C0.216679 0.988063 0 1.51117 0 2.05662H2.05662ZM24.6795 2.05662H26.7361C26.7361 1.51117 26.5194 0.988063 26.1337 0.602371C25.748 0.216679 25.2249 0 24.6795 0V2.05662ZM24.6795 14.3964V12.3397C24.134 12.3397 23.6109 12.5564 23.2252 12.9421C22.8395 13.3278 22.6229 13.8509 22.6229 14.3964H24.6795ZM2.05662 4.11325H24.6795V0H2.05662V4.11325ZM22.6229 2.05662V34.9626H26.7361V2.05662H22.6229ZM4.11325 30.8494V2.05662H0V30.8494H4.11325ZM24.6795 16.453H34.9626V12.3397H24.6795V16.453ZM41.1325 22.6229V30.8494H45.2457V22.6229H41.1325ZM26.7361 34.9626V14.3964H22.6229V34.9626H26.7361ZM36.4166 36.4166C36.031 36.8022 35.5079 37.0188 34.9626 37.0188C34.4173 37.0188 33.8942 36.8022 33.5086 36.4166L30.6005 39.3247C31.7575 40.4814 33.3266 41.1312 34.9626 41.1312C36.5986 41.1312 38.1677 40.4814 39.3247 39.3247L36.4166 36.4166ZM33.5086 33.5086C33.8942 33.123 34.4173 32.9064 34.9626 32.9064C35.5079 32.9064 36.031 33.123 36.4166 33.5086L39.3247 30.6005C38.1677 29.4438 36.5986 28.7941 34.9626 28.7941C33.3266 28.7941 31.7575 29.4438 30.6005 30.6005L33.5086 33.5086ZM11.7372 36.4166C11.3515 36.8022 10.8285 37.0188 10.2831 37.0188C9.73778 37.0188 9.21476 36.8022 8.82909 36.4166L5.92102 39.3247C7.07804 40.4814 8.64709 41.1312 10.2831 41.1312C11.9191 41.1312 13.4882 40.4814 14.6452 39.3247L11.7372 36.4166ZM8.82909 33.5086C9.21476 33.123 9.73778 32.9064 10.2831 32.9064C10.8285 32.9064 11.3515 33.123 11.7372 33.5086L14.6452 30.6005C13.4882 29.4438 11.9191 28.7941 10.2831 28.7941C8.64709 28.7941 7.07804 29.4438 5.92102 30.6005L8.82909 33.5086ZM36.4166 33.5086C36.8197 33.9096 37.0192 34.4341 37.0192 34.9626H41.1325C41.1325 33.3872 40.5299 31.8036 39.3247 30.6005L36.4166 33.5086ZM37.0192 34.9626C37.0198 35.2328 36.9669 35.5004 36.8635 35.7499C36.76 35.9995 36.6082 36.2261 36.4166 36.4166L39.3247 39.3247C39.8982 38.7523 40.3531 38.0724 40.6633 37.3238C40.9736 36.5753 41.133 35.7729 41.1325 34.9626H37.0192ZM30.8494 32.906H24.6795V37.0192H30.8494V32.906ZM33.5086 36.4166C33.317 36.2261 33.1652 35.9995 33.0617 35.7499C32.9583 35.5004 32.9054 35.2328 32.906 34.9626H28.7927C28.7927 36.538 29.3953 38.1216 30.6005 39.3247L33.5086 36.4166ZM32.906 34.9626C32.9049 34.6924 32.9576 34.4246 33.0611 34.175C33.1646 33.9254 33.3167 33.6988 33.5086 33.5086L30.6005 30.6005C30.027 31.1729 29.5721 31.8529 29.2619 32.6014C28.9517 33.3499 28.7922 34.1523 28.7927 34.9626H32.906ZM8.82909 36.4166C8.63755 36.2261 8.48568 35.9995 8.38224 35.7499C8.27881 35.5004 8.22588 35.2328 8.2265 34.9626H4.11325C4.11325 36.538 4.71584 38.1216 5.92102 39.3247L8.82909 36.4166ZM8.2265 34.9626C8.22542 34.6924 8.27815 34.4246 8.38161 34.175C8.48506 33.9254 8.63718 33.6988 8.82909 33.5086L5.92102 30.6005C5.34751 31.1729 4.89261 31.8529 4.58239 32.6014C4.27218 33.3499 4.11275 34.1523 4.11325 34.9626H8.2265ZM24.6795 32.906H14.3964V37.0192H24.6795V32.906ZM11.7372 33.5086C12.1403 33.9096 12.3397 34.4341 12.3397 34.9626H16.453C16.453 33.3872 15.8504 31.8036 14.6452 30.6005L11.7372 33.5086ZM12.3397 34.9626C12.3404 35.2328 12.2874 35.5004 12.184 35.7499C12.0806 35.9995 11.9287 36.2261 11.7372 36.4166L14.6452 39.3247C15.2187 38.7523 15.6736 38.0724 15.9838 37.3238C16.2941 36.5753 16.4535 35.7729 16.453 34.9626H12.3397ZM41.1325 30.8494C41.1325 31.3948 40.9158 31.9179 40.5301 32.3036C40.1444 32.6893 39.6213 32.906 39.0759 32.906V37.0192C40.7122 37.0192 42.2815 36.3692 43.4386 35.2121C44.5957 34.055 45.2457 32.4857 45.2457 30.8494H41.1325ZM34.9626 16.453C36.599 16.453 38.1683 17.103 39.3254 18.2601C40.4824 19.4172 41.1325 20.9865 41.1325 22.6229H45.2457C45.2457 21.2725 44.9797 19.9353 44.463 18.6877C43.9462 17.4401 43.1887 16.3065 42.2339 15.3516C41.279 14.3967 40.1454 13.6393 38.8978 13.1225C37.6502 12.6057 36.313 12.3397 34.9626 12.3397V16.453ZM0 30.8494C0 32.4857 0.650038 34.055 1.80711 35.2121C2.96419 36.3692 4.53352 37.0192 6.16987 37.0192V32.906C5.62442 32.906 5.10131 32.6893 4.71562 32.3036C4.32993 31.9179 4.11325 31.3948 4.11325 30.8494H0Z"/>
</mask>
<path d="M2.05662 2.05662V0C1.51117 0 0.988063 0.216679 0.602371 0.602371C0.216679 0.988063 0 1.51117 0 2.05662H2.05662ZM24.6795 2.05662H26.7361C26.7361 1.51117 26.5194 0.988063 26.1337 0.602371C25.748 0.216679 25.2249 0 24.6795 0V2.05662ZM24.6795 14.3964V12.3397C24.134 12.3397 23.6109 12.5564 23.2252 12.9421C22.8395 13.3278 22.6229 13.8509 22.6229 14.3964H24.6795ZM2.05662 4.11325H24.6795V0H2.05662V4.11325ZM22.6229 2.05662V34.9626H26.7361V2.05662H22.6229ZM4.11325 30.8494V2.05662H0V30.8494H4.11325ZM24.6795 16.453H34.9626V12.3397H24.6795V16.453ZM41.1325 22.6229V30.8494H45.2457V22.6229H41.1325ZM26.7361 34.9626V14.3964H22.6229V34.9626H26.7361ZM36.4166 36.4166C36.031 36.8022 35.5079 37.0188 34.9626 37.0188C34.4173 37.0188 33.8942 36.8022 33.5086 36.4166L30.6005 39.3247C31.7575 40.4814 33.3266 41.1312 34.9626 41.1312C36.5986 41.1312 38.1677 40.4814 39.3247 39.3247L36.4166 36.4166ZM33.5086 33.5086C33.8942 33.123 34.4173 32.9064 34.9626 32.9064C35.5079 32.9064 36.031 33.123 36.4166 33.5086L39.3247 30.6005C38.1677 29.4438 36.5986 28.7941 34.9626 28.7941C33.3266 28.7941 31.7575 29.4438 30.6005 30.6005L33.5086 33.5086ZM11.7372 36.4166C11.3515 36.8022 10.8285 37.0188 10.2831 37.0188C9.73778 37.0188 9.21476 36.8022 8.82909 36.4166L5.92102 39.3247C7.07804 40.4814 8.64709 41.1312 10.2831 41.1312C11.9191 41.1312 13.4882 40.4814 14.6452 39.3247L11.7372 36.4166ZM8.82909 33.5086C9.21476 33.123 9.73778 32.9064 10.2831 32.9064C10.8285 32.9064 11.3515 33.123 11.7372 33.5086L14.6452 30.6005C13.4882 29.4438 11.9191 28.7941 10.2831 28.7941C8.64709 28.7941 7.07804 29.4438 5.92102 30.6005L8.82909 33.5086ZM36.4166 33.5086C36.8197 33.9096 37.0192 34.4341 37.0192 34.9626H41.1325C41.1325 33.3872 40.5299 31.8036 39.3247 30.6005L36.4166 33.5086ZM37.0192 34.9626C37.0198 35.2328 36.9669 35.5004 36.8635 35.7499C36.76 35.9995 36.6082 36.2261 36.4166 36.4166L39.3247 39.3247C39.8982 38.7523 40.3531 38.0724 40.6633 37.3238C40.9736 36.5753 41.133 35.7729 41.1325 34.9626H37.0192ZM30.8494 32.906H24.6795V37.0192H30.8494V32.906ZM33.5086 36.4166C33.317 36.2261 33.1652 35.9995 33.0617 35.7499C32.9583 35.5004 32.9054 35.2328 32.906 34.9626H28.7927C28.7927 36.538 29.3953 38.1216 30.6005 39.3247L33.5086 36.4166ZM32.906 34.9626C32.9049 34.6924 32.9576 34.4246 33.0611 34.175C33.1646 33.9254 33.3167 33.6988 33.5086 33.5086L30.6005 30.6005C30.027 31.1729 29.5721 31.8529 29.2619 32.6014C28.9517 33.3499 28.7922 34.1523 28.7927 34.9626H32.906ZM8.82909 36.4166C8.63755 36.2261 8.48568 35.9995 8.38224 35.7499C8.27881 35.5004 8.22588 35.2328 8.2265 34.9626H4.11325C4.11325 36.538 4.71584 38.1216 5.92102 39.3247L8.82909 36.4166ZM8.2265 34.9626C8.22542 34.6924 8.27815 34.4246 8.38161 34.175C8.48506 33.9254 8.63718 33.6988 8.82909 33.5086L5.92102 30.6005C5.34751 31.1729 4.89261 31.8529 4.58239 32.6014C4.27218 33.3499 4.11275 34.1523 4.11325 34.9626H8.2265ZM24.6795 32.906H14.3964V37.0192H24.6795V32.906ZM11.7372 33.5086C12.1403 33.9096 12.3397 34.4341 12.3397 34.9626H16.453C16.453 33.3872 15.8504 31.8036 14.6452 30.6005L11.7372 33.5086ZM12.3397 34.9626C12.3404 35.2328 12.2874 35.5004 12.184 35.7499C12.0806 35.9995 11.9287 36.2261 11.7372 36.4166L14.6452 39.3247C15.2187 38.7523 15.6736 38.0724 15.9838 37.3238C16.2941 36.5753 16.4535 35.7729 16.453 34.9626H12.3397ZM41.1325 30.8494C41.1325 31.3948 40.9158 31.9179 40.5301 32.3036C40.1444 32.6893 39.6213 32.906 39.0759 32.906V37.0192C40.7122 37.0192 42.2815 36.3692 43.4386 35.2121C44.5957 34.055 45.2457 32.4857 45.2457 30.8494H41.1325ZM34.9626 16.453C36.599 16.453 38.1683 17.103 39.3254 18.2601C40.4824 19.4172 41.1325 20.9865 41.1325 22.6229H45.2457C45.2457 21.2725 44.9797 19.9353 44.463 18.6877C43.9462 17.4401 43.1887 16.3065 42.2339 15.3516C41.279 14.3967 40.1454 13.6393 38.8978 13.1225C37.6502 12.6057 36.313 12.3397 34.9626 12.3397V16.453ZM0 30.8494C0 32.4857 0.650038 34.055 1.80711 35.2121C2.96419 36.3692 4.53352 37.0192 6.16987 37.0192V32.906C5.62442 32.906 5.10131 32.6893 4.71562 32.3036C4.32993 31.9179 4.11325 31.3948 4.11325 30.8494H0Z" fill="white"/>
<path d="M22.6229 34.9626V35.3626H26.7361V34.9626V34.5626H22.6229V34.9626ZM0 30.8494V31.2494H4.11325V30.8494V30.4494H0V30.8494ZM34.9626 16.453H35.3626V12.3397H34.9626H34.5626V16.453H34.9626ZM41.1325 30.8494V31.2494H45.2457V30.8494V30.4494H41.1325V30.8494ZM45.2457 22.6229V22.2229H41.1325V22.6229V23.0229H45.2457V22.6229ZM33.5086 36.4166L33.2257 36.1338L30.3177 39.0419L30.6005 39.3247L30.8833 39.6075L33.7914 36.6995L33.5086 36.4166ZM39.3247 39.3247L39.6075 39.0419L36.6995 36.1338L36.4166 36.4166L36.1338 36.6995L39.0419 39.6075L39.3247 39.3247ZM36.4166 33.5086L36.6995 33.7914L39.6075 30.8833L39.3247 30.6005L39.0419 30.3177L36.1338 33.2257L36.4166 33.5086ZM30.6005 30.6005L30.3177 30.8833L33.2257 33.7914L33.5086 33.5086L33.7914 33.2257L30.8833 30.3177L30.6005 30.6005ZM8.82909 36.4166L8.54624 36.1338L5.63818 39.0419L5.92102 39.3247L6.20386 39.6075L9.11193 36.6995L8.82909 36.4166ZM14.6452 39.3247L14.9281 39.0419L12.02 36.1338L11.7372 36.4166L11.4543 36.6995L14.3624 39.6075L14.6452 39.3247ZM11.7372 33.5086L12.02 33.7914L14.9281 30.8833L14.6452 30.6005L14.3624 30.3177L11.4543 33.2257L11.7372 33.5086ZM5.92102 30.6005L5.63818 30.8833L8.54624 33.7914L8.82909 33.5086L9.11193 33.2257L6.20386 30.3177L5.92102 30.6005ZM37.0192 34.9626V35.3626H41.1325V34.9626V34.5626H37.0192V34.9626ZM24.6795 32.906H24.2795V37.0192H24.6795H25.0795V32.906H24.6795ZM32.906 34.9626V34.5626H28.7927V34.9626V35.3626H32.906V34.9626ZM8.2265 34.9626V34.5626H4.11325V34.9626V35.3626H8.2265V34.9626ZM12.3397 34.9626V35.3626H16.453V34.9626V34.5626H12.3397V34.9626ZM2.05662 2.05662V2.85662H2.85662V2.05662H2.05662ZM2.05662 0L2.05662 -0.8L2.05662 0ZM0 2.05662H-0.8H0ZM24.6795 2.05662H23.8795V2.85662H24.6795V2.05662ZM24.6795 0V-0.8V0ZM24.6795 14.3964V15.1964H25.4795V14.3964H24.6795ZM2.05662 4.11325H1.25662V4.91325H2.05662V4.11325ZM24.6795 4.11325V4.91325H25.4795V4.11325H24.6795ZM22.6229 2.05662V1.25662H21.8229V2.05662H22.6229ZM4.11325 30.8494H3.31325H4.11325ZM4.11325 2.05662H4.91325V1.25662H4.11325V2.05662ZM0 30.8494H-0.8H0ZM24.6795 16.453H23.8795V17.253H24.6795V16.453ZM34.9626 12.3397V11.5397V12.3397ZM41.1325 22.6229L41.9325 22.6229L41.1325 22.6229ZM45.2457 30.8494H46.0457H45.2457ZM45.2457 22.6229H44.4457H45.2457ZM26.7361 14.3964H27.5361V13.5964H26.7361V14.3964ZM36.4166 36.4166L35.8525 35.8495L35.851 35.8509L36.4166 36.4166ZM33.5086 36.4166L34.0742 35.8509L34.0728 35.8495L33.5086 36.4166ZM30.6005 39.3247L31.1661 38.7589L31.1657 38.7585L30.6005 39.3247ZM39.3247 39.3247L38.7596 38.7585L38.7591 38.7589L39.3247 39.3247ZM33.5086 33.5086L34.0718 34.0767L34.0742 34.0743L33.5086 33.5086ZM36.4166 33.5086L35.851 34.0743L35.8524 34.0757L36.4166 33.5086ZM39.3247 30.6005L38.7591 31.1663L38.7595 31.1667L39.3247 30.6005ZM30.6005 30.6005L31.1656 31.1667L31.1661 31.1663L30.6005 30.6005ZM11.7372 36.4166L11.173 35.8495L11.1716 35.8509L11.7372 36.4166ZM8.82909 36.4166L9.39469 35.8509L9.39327 35.8495L8.82909 36.4166ZM5.92102 39.3247L6.48662 38.7589L6.48622 38.7585L5.92102 39.3247ZM14.6452 39.3247L14.0801 38.7585L14.0796 38.7589L14.6452 39.3247ZM8.82909 33.5086L9.39232 34.0767L9.39469 34.0743L8.82909 33.5086ZM11.7372 33.5086L11.1716 34.0743L11.1729 34.0757L11.7372 33.5086ZM14.6452 30.6005L14.0796 31.1663L14.08 31.1667L14.6452 30.6005ZM5.92102 30.6005L6.48615 31.1667L6.48662 31.1663L5.92102 30.6005ZM37.0192 34.9626L36.2192 34.9626L36.2192 34.9644L37.0192 34.9626ZM41.1325 34.9626L40.3325 34.9626L40.3325 34.9631L41.1325 34.9626ZM30.8494 32.906H31.6494V32.106H30.8494V32.906ZM30.8494 37.0192V37.8192H31.6494V37.0192H30.8494ZM32.906 34.9626L33.706 34.9644L33.706 34.9594L32.906 34.9626ZM28.7927 34.9626L29.5927 34.9626L29.5927 34.9621L28.7927 34.9626ZM8.2265 34.9626L9.02651 34.9644L9.02649 34.9594L8.2265 34.9626ZM4.11325 34.9626L4.91325 34.9626L4.91325 34.9621L4.11325 34.9626ZM14.3964 32.906V32.106H13.5964V32.906H14.3964ZM14.3964 37.0192H13.5964V37.8192H14.3964V37.0192ZM12.3397 34.9626L11.5397 34.9626L11.5397 34.9644L12.3397 34.9626ZM16.453 34.9626L15.653 34.9626L15.653 34.9631L16.453 34.9626ZM39.0759 32.906V32.106H38.2759V32.906H39.0759ZM39.0759 37.0192H38.2759V37.8192H39.0759V37.0192ZM6.16987 37.0192L6.16987 37.8192H6.96987V37.0192H6.16987ZM6.16987 32.906H6.96987V32.106H6.16987V32.906ZM2.05662 2.05662H2.85662V0H2.05662H1.25662V2.05662H2.05662ZM2.05662 0L2.05662 -0.8C1.299 -0.8 0.572407 -0.499035 0.0366857 0.0366857L0.602371 0.602371L1.16806 1.16806C1.40372 0.932394 1.72335 0.8 2.05662 0.8L2.05662 0ZM0.602371 0.602371L0.0366857 0.0366857C-0.499035 0.572407 -0.8 1.299 -0.8 2.05662L0 2.05662L0.8 2.05662C0.8 1.72335 0.932394 1.40372 1.16806 1.16806L0.602371 0.602371ZM0 2.05662V2.85662H2.05662V2.05662V1.25662H0V2.05662ZM24.6795 2.05662V2.85662H26.7361V2.05662V1.25662H24.6795V2.05662ZM26.7361 2.05662H27.5361C27.5361 1.299 27.2351 0.572406 26.6994 0.0366857L26.1337 0.602371L25.5681 1.16806C25.8037 1.40372 25.9361 1.72335 25.9361 2.05662H26.7361ZM26.1337 0.602371L26.6994 0.0366857C26.1637 -0.499035 25.4371 -0.8 24.6795 -0.8L24.6795 0L24.6795 0.8C25.0128 0.8 25.3324 0.932394 25.5681 1.16806L26.1337 0.602371ZM24.6795 0H23.8795V2.05662H24.6795H25.4795V0H24.6795ZM24.6795 14.3964H25.4795V12.3397H24.6795H23.8795V14.3964H24.6795ZM24.6795 12.3397L24.6795 11.5397C23.9219 11.5397 23.1953 11.8407 22.6595 12.3764L23.2252 12.9421L23.7909 13.5078C24.0266 13.2721 24.3462 13.1397 24.6795 13.1397L24.6795 12.3397ZM23.2252 12.9421L22.6595 12.3764C22.1238 12.9122 21.8229 13.6387 21.8229 14.3964H22.6229H23.4229C23.4229 14.0631 23.5553 13.7435 23.7909 13.5078L23.2252 12.9421ZM22.6229 14.3964V15.1964H24.6795V14.3964V13.5964H22.6229V14.3964ZM2.05662 4.11325V4.91325H24.6795V4.11325V3.31325H2.05662V4.11325ZM24.6795 4.11325H25.4795V0H24.6795H23.8795V4.11325H24.6795ZM24.6795 0V-0.8H2.05662V0V0.8H24.6795V0ZM2.05662 0H1.25662V4.11325H2.05662H2.85662V0H2.05662ZM22.6229 2.05662H21.8229V34.9626H22.6229H23.4229V2.05662H22.6229ZM26.7361 34.9626H27.5361V2.05662H26.7361H25.9361V34.9626H26.7361ZM26.7361 2.05662V1.25662H22.6229V2.05662V2.85662H26.7361V2.05662ZM4.11325 30.8494H4.91325V2.05662H4.11325H3.31325V30.8494H4.11325ZM4.11325 2.05662V1.25662H0V2.05662V2.85662H4.11325V2.05662ZM0 2.05662H-0.8V30.8494H0H0.8V2.05662H0ZM24.6795 16.453V17.253H34.9626V16.453V15.653H24.6795V16.453ZM34.9626 12.3397V11.5397H24.6795V12.3397V13.1397H34.9626V12.3397ZM24.6795 12.3397H23.8795V16.453H24.6795H25.4795V12.3397H24.6795ZM41.1325 22.6229H40.3325V30.8494H41.1325H41.9325V22.6229H41.1325ZM45.2457 30.8494H46.0457V22.6229H45.2457H44.4457V30.8494H45.2457ZM26.7361 34.9626H27.5361V14.3964H26.7361H25.9361V34.9626H26.7361ZM26.7361 14.3964V13.5964H22.6229V14.3964V15.1964H26.7361V14.3964ZM22.6229 14.3964H21.8229V34.9626H22.6229H23.4229V14.3964H22.6229ZM36.4166 36.4166L35.851 35.8509C35.6154 36.0864 35.2958 36.2188 34.9626 36.2188V37.0188V37.8188C35.7201 37.8188 36.4465 37.5179 36.9822 36.9824L36.4166 36.4166ZM34.9626 37.0188V36.2188C34.6294 36.2188 34.3098 36.0864 34.0742 35.8509L33.5086 36.4166L32.943 36.9824C33.4787 37.5179 34.2051 37.8188 34.9626 37.8188V37.0188ZM30.6005 39.3247L30.0349 39.8905C31.342 41.1971 33.1144 41.9312 34.9626 41.9312V41.1312V40.3312C33.5387 40.3312 32.1731 39.7656 31.1661 38.7589L30.6005 39.3247ZM34.9626 41.1312V41.9312C36.8108 41.9312 38.5833 41.1971 39.8903 39.8905L39.3247 39.3247L38.7591 38.7589C37.7521 39.7656 36.3865 40.3312 34.9626 40.3312V41.1312ZM33.5086 33.5086L34.0742 34.0743C34.3098 33.8388 34.6294 33.7064 34.9626 33.7064V32.9064V32.1064C34.2051 32.1064 33.4787 32.4073 32.943 32.9428L33.5086 33.5086ZM34.9626 32.9064V33.7064C35.2958 33.7064 35.6154 33.8388 35.851 34.0743L36.4166 33.5086L36.9822 32.9428C36.4465 32.4073 35.7201 32.1064 34.9626 32.1064V32.9064ZM39.3247 30.6005L39.8903 30.0347C38.5833 28.7281 36.8108 27.9941 34.9626 27.9941V28.7941V29.5941C36.3865 29.5941 37.7521 30.1596 38.7591 31.1663L39.3247 30.6005ZM34.9626 28.7941V27.9941C33.1144 27.9941 31.342 28.7281 30.0349 30.0347L30.6005 30.6005L31.1661 31.1663C32.1731 30.1596 33.5387 29.5941 34.9626 29.5941V28.7941ZM11.7372 36.4166L11.1716 35.8509C10.9359 36.0865 10.6163 36.2188 10.2831 36.2188V37.0188V37.8188C11.0406 37.8188 11.7671 37.5179 12.3028 36.9824L11.7372 36.4166ZM10.2831 37.0188V36.2188C9.94991 36.2188 9.63034 36.0865 9.39469 35.8509L8.82909 36.4166L8.26349 36.9824C8.79918 37.5179 9.52565 37.8188 10.2831 37.8188V37.0188ZM5.92102 39.3247L5.35542 39.8905C6.66246 41.1971 8.43496 41.9312 10.2831 41.9312V41.1312V40.3312C8.85922 40.3312 7.49362 39.7656 6.48662 38.7589L5.92102 39.3247ZM10.2831 41.1312V41.9312C12.1313 41.9312 13.9038 41.1971 15.2108 39.8905L14.6452 39.3247L14.0796 38.7589C13.0726 39.7656 11.707 40.3312 10.2831 40.3312V41.1312ZM8.82909 33.5086L9.39469 34.0743C9.63034 33.8388 9.94991 33.7064 10.2831 33.7064V32.9064V32.1064C9.52565 32.1064 8.79918 32.4073 8.26349 32.9428L8.82909 33.5086ZM10.2831 32.9064V33.7064C10.6163 33.7064 10.9359 33.8388 11.1716 34.0743L11.7372 33.5086L12.3028 32.9428C11.7671 32.4073 11.0406 32.1064 10.2831 32.1064V32.9064ZM14.6452 30.6005L15.2108 30.0347C13.9038 28.7281 12.1313 27.9941 10.2831 27.9941V28.7941V29.5941C11.707 29.5941 13.0726 30.1596 14.0796 31.1663L14.6452 30.6005ZM10.2831 28.7941V27.9941C8.43496 27.9941 6.66246 28.7281 5.35542 30.0347L5.92102 30.6005L6.48662 31.1663C7.49362 30.1596 8.85922 29.5941 10.2831 29.5941V28.7941ZM36.4166 33.5086L35.8524 34.0757C36.0974 34.3195 36.2192 34.6366 36.2192 34.9626H37.0192H37.8192C37.8192 34.2315 37.542 33.4997 36.9809 32.9414L36.4166 33.5086ZM41.1325 34.9626H41.9325C41.9325 33.1841 41.2519 31.394 39.8899 30.0343L39.3247 30.6005L38.7595 31.1667C39.8079 32.2133 40.3325 33.5903 40.3325 34.9626H41.1325ZM37.0192 34.9626L36.2192 34.9644C36.2196 35.1289 36.1874 35.2918 36.1244 35.4437L36.8635 35.7499L37.6025 36.0562C37.7464 35.709 37.8201 35.3367 37.8192 34.9608L37.0192 34.9626ZM36.8635 35.7499L36.1244 35.4437C36.0615 35.5956 35.969 35.7335 35.8525 35.8495L36.4166 36.4166L36.9808 36.9838C37.2473 36.7187 37.4586 36.4035 37.6025 36.0562L36.8635 35.7499ZM39.3247 39.3247L39.8898 39.8909C40.5379 39.2442 41.0519 38.4759 41.4024 37.6301L40.6633 37.3238L39.9243 37.0175C39.6544 37.6688 39.2586 38.2604 38.7596 38.7585L39.3247 39.3247ZM40.6633 37.3238L41.4024 37.6301C41.7529 36.7843 41.933 35.8777 41.9325 34.9621L41.1325 34.9626L40.3325 34.9631C40.3329 35.6681 40.1942 36.3663 39.9243 37.0175L40.6633 37.3238ZM30.8494 32.906V32.106H24.6795V32.906V33.706H30.8494V32.906ZM24.6795 37.0192V37.8192H30.8494V37.0192V36.2192H24.6795V37.0192ZM30.8494 37.0192H31.6494V32.906H30.8494H30.0494V37.0192H30.8494ZM33.5086 36.4166L34.0728 35.8495C33.9562 35.7335 33.8637 35.5956 33.8008 35.4437L33.0617 35.7499L32.3227 36.0562C32.4666 36.4035 32.6779 36.7187 32.9444 36.9838L33.5086 36.4166ZM33.0617 35.7499L33.8008 35.4437C33.7378 35.2918 33.7056 35.1289 33.706 34.9644L32.906 34.9626L32.106 34.9608C32.1051 35.3367 32.1788 35.709 32.3227 36.0562L33.0617 35.7499ZM28.7927 34.9626H27.9927C27.9927 36.7411 28.6733 38.5312 30.0353 39.8909L30.6005 39.3247L31.1657 38.7585C30.1173 37.7119 29.5927 36.3349 29.5927 34.9626H28.7927ZM32.906 34.9626L33.706 34.9594C33.7053 34.7954 33.7373 34.6328 33.8001 34.4813L33.0611 34.175L32.322 33.8687C32.1779 34.2165 32.1045 34.5894 32.106 34.9658L32.906 34.9626ZM33.0611 34.175L33.8001 34.4813C33.863 34.3297 33.9553 34.1922 34.0718 34.0767L33.5086 33.5086L32.9453 32.9404C32.678 33.2054 32.4662 33.521 32.322 33.8687L33.0611 34.175ZM30.6005 30.6005L30.0354 30.0343C29.3874 30.681 28.8733 31.4493 28.5228 32.2951L29.2619 32.6014L30.0009 32.9077C30.2708 32.2564 30.6666 31.6648 31.1656 31.1667L30.6005 30.6005ZM29.2619 32.6014L28.5228 32.2951C28.1723 33.1409 27.9922 34.0476 27.9927 34.9631L28.7927 34.9626L29.5927 34.9621C29.5923 34.2571 29.731 33.559 30.0009 32.9077L29.2619 32.6014ZM8.82909 36.4166L9.39327 35.8495C9.27669 35.7335 9.18425 35.5956 9.12129 35.4437L8.38224 35.7499L7.6432 36.0562C7.7871 36.4035 7.99841 36.7187 8.2649 36.9838L8.82909 36.4166ZM8.38224 35.7499L9.12129 35.4437C9.05834 35.2918 9.02612 35.1289 9.02649 34.9644L8.2265 34.9626L7.4265 34.9608C7.42564 35.3367 7.49929 35.709 7.6432 36.0562L8.38224 35.7499ZM4.11325 34.9626H3.31325C3.31325 36.7411 3.99386 38.5312 5.35582 39.8909L5.92102 39.3247L6.48622 38.7585C5.43782 37.7119 4.91325 36.3349 4.91325 34.9626H4.11325ZM8.2265 34.9626L9.02649 34.9594C9.02584 34.7954 9.05785 34.6328 9.12065 34.4813L8.38161 34.175L7.64256 33.8687C7.49845 34.2165 7.42501 34.5894 7.4265 34.9658L8.2265 34.9626ZM8.38161 34.175L9.12065 34.4813C9.18346 34.3297 9.27581 34.1922 9.39231 34.0767L8.82909 33.5086L8.26586 32.9404C7.99855 33.2054 7.78667 33.521 7.64256 33.8687L8.38161 34.175ZM5.92102 30.6005L5.35589 30.0343C4.70787 30.681 4.19386 31.4493 3.84334 32.2951L4.58239 32.6014L5.32144 32.9077C5.59135 32.2564 5.98715 31.6648 6.48615 31.1667L5.92102 30.6005ZM4.58239 32.6014L3.84334 32.2951C3.49282 33.1409 3.31268 34.0476 3.31325 34.9631L4.11325 34.9626L4.91325 34.9621C4.91281 34.2571 5.05153 33.559 5.32144 32.9077L4.58239 32.6014ZM24.6795 32.906V32.106H14.3964V32.906V33.706H24.6795V32.906ZM14.3964 32.906H13.5964V37.0192H14.3964H15.1964V32.906H14.3964ZM14.3964 37.0192V37.8192H24.6795V37.0192V36.2192H14.3964V37.0192ZM11.7372 33.5086L11.1729 34.0757C11.418 34.3195 11.5397 34.6366 11.5397 34.9626H12.3397H13.1397C13.1397 34.2315 12.8625 33.4997 12.3014 32.9414L11.7372 33.5086ZM16.453 34.9626H17.253C17.253 33.1841 16.5724 31.394 15.2104 30.0343L14.6452 30.6005L14.08 31.1667C15.1284 32.2133 15.653 33.5903 15.653 34.9626H16.453ZM12.3397 34.9626L11.5397 34.9644C11.5401 35.1289 11.5079 35.2918 11.4449 35.4437L12.184 35.7499L12.923 36.0562C13.067 35.709 13.1406 35.3367 13.1397 34.9608L12.3397 34.9626ZM12.184 35.7499L11.4449 35.4437C11.382 35.5956 11.2896 35.7335 11.173 35.8495L11.7372 36.4166L12.3013 36.9838C12.5678 36.7187 12.7791 36.4035 12.923 36.0562L12.184 35.7499ZM14.6452 39.3247L15.2103 39.8909C15.8584 39.2442 16.3724 38.4759 16.7229 37.6301L15.9838 37.3238L15.2448 37.0175C14.9749 37.6688 14.5791 38.2604 14.0801 38.7585L14.6452 39.3247ZM15.9838 37.3238L16.7229 37.6301C17.0734 36.7843 17.2536 35.8777 17.253 34.9621L16.453 34.9626L15.653 34.9631C15.6534 35.6681 15.5147 36.3663 15.2448 37.0175L15.9838 37.3238ZM41.1325 30.8494H40.3325C40.3325 31.1826 40.2001 31.5023 39.9644 31.7379L40.5301 32.3036L41.0958 32.8693C41.6315 32.3336 41.9325 31.607 41.9325 30.8494H41.1325ZM40.5301 32.3036L39.9644 31.7379C39.7288 31.9736 39.4091 32.106 39.0759 32.106V32.906V33.706C39.8335 33.706 40.5601 33.405 41.0958 32.8693L40.5301 32.3036ZM39.0759 32.906H38.2759V37.0192H39.0759H39.8759V32.906H39.0759ZM39.0759 37.0192V37.8192C40.9244 37.8192 42.6972 37.0849 44.0043 35.7778L43.4386 35.2121L42.8729 34.6464C41.8659 35.6535 40.5 36.2192 39.0759 36.2192V37.0192ZM43.4386 35.2121L44.0043 35.7778C45.3114 34.4707 46.0457 32.6979 46.0457 30.8494L45.2457 30.8494L44.4457 30.8494C44.4457 32.2735 43.88 33.6394 42.8729 34.6464L43.4386 35.2121ZM34.9626 16.453V17.253C36.3868 17.253 37.7526 17.8187 38.7597 18.8258L39.3254 18.2601L39.8911 17.6944C38.5839 16.3873 36.8111 15.653 34.9626 15.653V16.453ZM39.3254 18.2601L38.7597 18.8258C39.7667 19.8328 40.3325 21.1987 40.3325 22.6229L41.1325 22.6229L41.9325 22.6229C41.9325 20.7743 41.1982 19.0015 39.8911 17.6944L39.3254 18.2601ZM45.2457 22.6229L46.0457 22.6229C46.0457 21.1674 45.7591 19.7262 45.2021 18.3815L44.463 18.6877L43.7239 18.9938C44.2004 20.1444 44.4457 21.3775 44.4457 22.6229L45.2457 22.6229ZM44.463 18.6877L45.2021 18.3815C44.6451 17.0369 43.8287 15.8151 42.7996 14.7859L42.2339 15.3516L41.6682 15.9173C42.5488 16.7979 43.2473 17.8433 43.7239 18.9938L44.463 18.6877ZM42.2339 15.3516L42.7996 14.7859C41.7704 13.7568 40.5486 12.9404 39.2039 12.3834L38.8978 13.1225L38.5916 13.8616C39.7422 14.3382 40.7876 15.0367 41.6682 15.9173L42.2339 15.3516ZM38.8978 13.1225L39.2039 12.3834C37.8593 11.8264 36.4181 11.5397 34.9626 11.5397V12.3397V13.1397C36.2079 13.1397 37.4411 13.385 38.5916 13.8616L38.8978 13.1225ZM0 30.8494H-0.8C-0.8 32.6979 -0.0656765 34.4707 1.24143 35.7778L1.80711 35.2121L2.3728 34.6464C1.36575 33.6394 0.8 32.2735 0.8 30.8494H0ZM1.80711 35.2121L1.24143 35.7778C2.54853 37.0849 4.32135 37.8192 6.16987 37.8192L6.16987 37.0192L6.16987 36.2192C4.74569 36.2192 3.37985 35.6535 2.3728 34.6464L1.80711 35.2121ZM6.16987 37.0192H6.96987V32.906H6.16987H5.36987V37.0192H6.16987ZM6.16987 32.906V32.106C5.83659 32.106 5.51697 31.9736 5.2813 31.7379L4.71562 32.3036L4.14993 32.8693C4.68566 33.405 5.41225 33.706 6.16987 33.706V32.906ZM4.71562 32.3036L5.2813 31.7379C5.04564 31.5023 4.91325 31.1826 4.91325 30.8494H4.11325H3.31325C3.31325 31.607 3.61421 32.3336 4.14993 32.8693L4.71562 32.3036Z" fill="white" mask="url(#path-1-inside-1_6001_2)"/>
</svg>
