<svg width="22" height="22" viewBox="0 0 22 22" fill="none" xmlns="http://www.w3.org/2000/svg">
<path d="M15.1676 13.5616V17.6866M13.1041 15.6241H17.2301M20.6666 14.2491C20.6696 15.85 20.1261 17.404 19.126 18.6541C18.1259 19.9042 16.7291 20.7755 15.1666 21.1241C13.6041 20.7755 12.2074 19.9042 11.2073 18.6541C10.2072 17.404 9.66371 15.85 9.66664 14.2491V12.1875C9.66664 11.8228 9.8115 11.4731 10.0694 11.2152C10.3272 10.9574 10.677 10.8125 11.0416 10.8125H19.2916C19.6563 10.8125 20.006 10.9574 20.2639 11.2152C20.5218 11.4731 20.6666 11.8228 20.6666 12.1875V14.2491Z" stroke="#7069BC" stroke-linecap="round" stroke-linejoin="round"/>
<path d="M7.375 18.3778H3.25C2.52065 18.3778 1.82118 18.088 1.30546 17.5723C0.789731 17.0566 0.5 16.3571 0.5 15.6278V8.75275C0.5 8.02341 0.789731 7.32393 1.30546 6.80821C1.82118 6.29248 2.52065 6.00275 3.25 6.00275H8.75C9.37285 6.00264 9.97728 6.21396 10.4644 6.60214C10.9515 6.99031 11.2924 7.53234 11.4313 8.1395M0.5 1.875L1.07017 1.30575C1.58532 0.790438 2.28393 0.500642 3.01258 0.5H9.4375M5.99908 3.25V0.5M8.75 6.00092H3.25V4.62592C3.25 4.26124 3.39487 3.91151 3.65273 3.65365C3.91059 3.39578 4.26033 3.25092 4.625 3.25092H7.375C7.73967 3.25092 8.08941 3.39578 8.34727 3.65365C8.60513 3.91151 8.75 4.26124 8.75 4.62592V6.00092Z" stroke="#7069BC" stroke-linecap="round" stroke-linejoin="round"/>
</svg>
