<svg width="16" height="17" viewBox="0 0 16 17" fill="none" xmlns="http://www.w3.org/2000/svg">
<path d="M10.8937 16.3588C10.7641 16.3588 10.6553 16.3148 10.5673 16.2268C10.4793 16.1388 10.4353 16.0301 10.4353 15.9005C10.4353 15.7703 10.4793 15.6613 10.5673 15.5733C10.6553 15.4853 10.7641 15.4416 10.8937 15.4422H13.3971V14.3147H10.8946C10.7644 14.3147 10.6553 14.2704 10.5673 14.1818C10.4793 14.0931 10.4353 13.9844 10.4353 13.8554C10.4353 13.7253 10.4793 13.6165 10.5673 13.5291C10.6553 13.4417 10.7641 13.3977 10.8937 13.3971H13.3971V12.2696H10.8946C10.7644 12.2696 10.6553 12.2256 10.5673 12.1376C10.4793 12.0496 10.4353 11.9405 10.4353 11.8103C10.4353 11.6802 10.4793 11.5714 10.5673 11.484C10.6553 11.3966 10.7641 11.3529 10.8937 11.3529H13.3971V10.2245H10.8946C10.7644 10.2245 10.6553 10.1805 10.5673 10.0925C10.4793 10.0045 10.4353 9.89542 10.4353 9.76525C10.4353 9.63508 10.4793 9.52631 10.5673 9.43892C10.6553 9.35153 10.7641 9.30783 10.8937 9.30783H13.3971V8.18033H10.8946C10.7644 8.18033 10.6553 8.13603 10.5673 8.04742C10.4793 7.95881 10.4353 7.84972 10.4353 7.72017C10.4353 7.59061 10.4793 7.48183 10.5673 7.39383C10.6553 7.30645 10.7641 7.26275 10.8937 7.26275H13.3971V6.13525H10.8946C10.7644 6.13525 10.6553 6.09095 10.5673 6.00233C10.4793 5.91372 10.4353 5.80495 10.4353 5.676C10.4353 5.54583 10.4793 5.43706 10.5673 5.34967C10.6553 5.26167 10.7641 5.21767 10.8937 5.21767H13.8554C14.2423 5.21767 14.568 5.37961 14.8326 5.7035C15.0978 6.02739 15.2304 6.38275 15.2304 6.76958V14.9838C15.2304 15.3707 15.0978 15.6964 14.8326 15.961C14.568 16.2262 14.2423 16.3588 13.8554 16.3588H10.8937ZM4.58333 11C5.59167 11 6.45486 10.5035 7.17292 9.51042C7.89097 8.51736 8.25 7.33333 8.25 5.95833C8.25 4.58333 7.89097 3.39931 7.17292 2.40625C6.45486 1.41319 5.59167 0.916667 4.58333 0.916667C3.575 0.916667 2.71181 1.41319 1.99375 2.40625C1.27569 3.39931 0.916667 4.58333 0.916667 5.95833C0.916667 7.33333 1.27569 8.51736 1.99375 9.51042C2.71181 10.5035 3.575 11 4.58333 11ZM4.58333 16.3588C4.12011 16.3588 3.75161 16.1847 3.47783 15.8363C3.20406 15.488 3.091 15.0938 3.13867 14.6538L3.4705 11.7223C2.46706 11.4064 1.63778 10.7189 0.982667 9.65983C0.327556 8.60017 0 7.36633 0 5.95833C0 4.30344 0.445194 2.89667 1.33558 1.738C2.22597 0.579333 3.30703 0 4.57875 0C5.85108 0 6.93367 0.579333 7.8265 1.738C8.71994 2.89667 9.16667 4.30344 9.16667 5.95833C9.16667 7.36633 8.83911 8.60017 8.184 9.65983C7.52828 10.7189 6.69869 11.4064 5.69525 11.7223L6.02708 14.6548C6.08697 15.0941 5.97269 15.488 5.68425 15.8363C5.39642 16.1847 5.02944 16.3588 4.58333 16.3588Z" fill="#7069BC"/>
</svg>
