<svg width="34" height="34" viewBox="0 0 34 34" fill="none" xmlns="http://www.w3.org/2000/svg">
<path d="M21.6427 18.8197C21.6427 19.6895 21.3189 20.3401 20.8175 20.765C20.3205 21.1851 19.6639 21.3696 19.0167 21.3422C18.2697 21.3111 17.4992 20.9842 16.9913 20.3978L16.256 19.5492L16.1173 20.6644C15.944 22.0621 16.4321 23.0553 16.7472 23.3959H16.7482L16.8781 23.5365L16.5968 23.7972L16.4669 23.6576C16.0225 23.1783 15.4519 21.9143 15.8087 20.1888L15.963 19.4408L15.2159 19.598C14.6912 19.7085 14.1484 19.71 13.6232 19.6019C13.077 19.4857 12.5657 19.2407 12.1886 18.8529C11.8073 18.461 11.5714 17.9311 11.5714 17.2709C11.5715 16.2729 11.9188 15.5956 12.5226 15.0961C13.111 14.6091 13.9347 14.2993 14.8615 13.9994L14.8605 13.9984C15.0745 13.9298 15.2917 13.862 15.5177 13.7904L15.5187 13.7914C17.2728 13.2407 19.3596 12.5896 21.3263 10.9261L21.3273 10.9252L21.6427 10.6576V18.8197ZM20.4816 12.0404C18.7887 13.1695 17.0667 13.7098 15.6261 14.1595L15.6241 14.1605C15.4034 14.23 15.1866 14.2973 14.9806 14.3636H14.9796C14.0482 14.6652 13.2929 14.957 12.7677 15.391H12.7667C12.5269 15.5898 12.3164 15.8333 12.17 16.1547C12.0248 16.4735 11.9552 16.8412 11.9552 17.2709C11.9553 17.8332 12.152 18.2662 12.463 18.5853C12.7768 18.9076 13.2155 19.1228 13.7062 19.2269C14.597 19.4157 15.5839 19.2282 16.2335 18.7513L16.3302 18.6801L16.3839 18.5736C16.675 17.9966 17.0736 17.3849 17.6095 16.7513L17.8478 16.4789L17.9767 16.3353L18.2618 16.5922L18.1339 16.7347V16.7357C17.5696 17.3629 17.145 17.9657 16.8331 18.5375L16.7667 18.6595L16.7726 18.7992C16.8322 20.1565 17.9147 20.9118 19.0333 20.9584C19.6007 20.9821 20.1567 20.8192 20.5685 20.4711L20.5695 20.472C20.9771 20.1275 21.2589 19.5872 21.2589 18.8197V11.5219L20.4816 12.0404Z" fill="white" stroke="white"/>
<path d="M22.4462 4.65173C24.4282 4.65181 26.134 5.66453 27.3387 7.20349C28.5434 8.74036 29.2548 10.8108 29.2548 12.9574C29.2546 17.5476 26.0854 21.449 22.9628 24.1849C21.1627 25.7491 19.2078 27.1242 17.1317 28.2963L17.0516 28.142L16.9579 27.9603L17.0448 27.9125L17.0487 27.9105C19.0624 26.7635 20.958 25.4193 22.7069 23.8988L22.7089 23.8978C25.8125 21.1777 28.871 17.3734 28.871 12.9554C28.8709 10.8914 28.1853 8.90649 27.037 7.43982C25.8895 5.97468 24.2871 5.03559 22.4462 5.03552C19.8933 5.03552 17.9765 6.71606 16.7792 9.16345L16.6063 9.51599L16.4354 9.16443C15.2381 6.71567 13.3213 5.03555 10.7684 5.03552C8.92738 5.03552 7.32518 5.97463 6.17761 7.43982C5.02918 8.90657 4.34363 10.8923 4.34363 12.9564C4.34369 17.5689 7.40296 21.3741 10.5048 24.0424L10.5057 24.0433C12.274 25.5522 14.1995 26.8661 16.2469 27.9662L16.1571 28.1527L16.078 28.3138L15.9813 28.2631C13.9389 27.1578 12.0188 25.8395 10.2528 24.3314C7.12725 21.6417 3.9599 17.7403 3.95984 12.9564C3.95984 10.8115 4.67144 8.74125 5.87488 7.20349C7.08042 5.66496 8.78653 4.65173 10.7694 4.65173C13.1222 4.65187 14.9345 5.97731 16.1864 7.93494L16.6073 8.59412L17.0282 7.93494C18.2795 5.97793 20.0919 4.65173 22.4462 4.65173Z" fill="white" stroke="white"/>
<path d="M16.6071 28.3705L16.924 28.9856L16.6168 29.1434L16.3054 28.9933L16.6071 28.3705Z" fill="black"/>
</svg>
