<svg width="50" height="50" viewBox="0 0 50 50" fill="none" xmlns="http://www.w3.org/2000/svg">
<mask id="path-1-inside-1_35_889" fill="white">
<path d="M4.11323 6.16991V4.11328C3.56778 4.11328 3.04467 4.32996 2.65898 4.71565C2.27329 5.10134 2.05661 5.62445 2.05661 6.16991H4.11323ZM26.7361 6.16991H28.7927C28.7927 5.62445 28.576 5.10134 28.1903 4.71565C27.8047 4.32996 27.2815 4.11328 26.7361 4.11328V6.16991ZM26.7361 18.5096V16.453C26.1906 16.453 25.6675 16.6697 25.2818 17.0554C24.8962 17.4411 24.6795 17.9642 24.6795 18.5096H26.7361ZM4.11323 8.22653H26.7361V4.11328H4.11323V8.22653ZM24.6795 6.16991V39.0759H28.7927V6.16991H24.6795ZM6.16986 34.9626V6.16991H2.05661V34.9626H6.16986ZM26.7361 20.5663H37.0192V16.453H26.7361V20.5663ZM43.1891 26.7361V34.9626H47.3023V26.7361H43.1891ZM28.7927 39.0759V18.5096H24.6795V39.0759H28.7927ZM38.4733 40.5299C38.0876 40.9155 37.5646 41.1321 37.0192 41.1321C36.4739 41.1321 35.9509 40.9155 35.5652 40.5299L32.6571 43.438C33.8141 44.5947 35.3832 45.2444 37.0192 45.2444C38.6552 45.2444 40.2243 44.5947 41.3813 43.438L38.4733 40.5299ZM35.5652 37.6219C35.9509 37.2363 36.4739 37.0197 37.0192 37.0197C37.5646 37.0197 38.0876 37.2363 38.4733 37.6219L41.3813 34.7138C40.2243 33.5571 38.6552 32.9073 37.0192 32.9073C35.3832 32.9073 33.8141 33.5571 32.6571 34.7138L35.5652 37.6219ZM13.7938 40.5299C13.4081 40.9155 12.8851 41.1321 12.3397 41.1321C11.7944 41.1321 11.2714 40.9155 10.8857 40.5299L7.97763 43.438C9.13465 44.5947 10.7037 45.2444 12.3397 45.2444C13.9758 45.2444 15.5448 44.5947 16.7018 43.438L13.7938 40.5299ZM10.8857 37.6219C11.2714 37.2363 11.7944 37.0197 12.3397 37.0197C12.8851 37.0197 13.4081 37.2363 13.7938 37.6219L16.7018 34.7138C15.5448 33.5571 13.9758 32.9073 12.3397 32.9073C10.7037 32.9073 9.13465 33.5571 7.97763 34.7138L10.8857 37.6219ZM38.4733 37.6219C38.8764 38.0229 39.0758 38.5473 39.0758 39.0759H43.1891C43.1891 37.5005 42.5865 35.9169 41.3813 34.7138L38.4733 37.6219ZM39.0758 39.0759C39.0765 39.346 39.0235 39.6137 38.9201 39.8632C38.8167 40.1128 38.6648 40.3394 38.4733 40.5299L41.3813 43.438C41.9548 42.8656 42.4097 42.1856 42.7199 41.4371C43.0302 40.6886 43.1896 39.8862 43.1891 39.0759H39.0758ZM32.906 37.0193H26.7361V41.1325H32.906V37.0193ZM35.5652 40.5299C35.3736 40.3394 35.2218 40.1128 35.1183 39.8632C35.0149 39.6137 34.962 39.346 34.9626 39.0759H30.8493C30.8493 40.6513 31.4519 42.2349 32.6571 43.438L35.5652 40.5299ZM34.9626 39.0759C34.9615 38.8057 35.0142 38.5379 35.1177 38.2883C35.2212 38.0387 35.3733 37.8121 35.5652 37.6219L32.6571 34.7138C32.0836 35.2862 31.6287 35.9661 31.3185 36.7147C31.0083 37.4632 30.8488 38.2656 30.8493 39.0759H34.9626ZM10.8857 40.5299C10.6942 40.3394 10.5423 40.1128 10.4389 39.8632C10.3354 39.6137 10.2825 39.346 10.2831 39.0759H6.16986C6.16986 40.6513 6.77245 42.2349 7.97763 43.438L10.8857 40.5299ZM10.2831 39.0759C10.282 38.8057 10.3348 38.5379 10.4382 38.2883C10.5417 38.0387 10.6938 37.8121 10.8857 37.6219L7.97763 34.7138C7.40412 35.2862 6.94922 35.9661 6.639 36.7147C6.32879 37.4632 6.16936 38.2656 6.16986 39.0759H10.2831ZM26.7361 37.0193H16.453V41.1325H26.7361V37.0193ZM13.7938 37.6219C14.1969 38.0229 14.3964 38.5473 14.3964 39.0759H18.5096C18.5096 37.5005 17.907 35.9169 16.7018 34.7138L13.7938 37.6219ZM14.3964 39.0759C14.397 39.346 14.344 39.6137 14.2406 39.8632C14.1372 40.1128 13.9853 40.3394 13.7938 40.5299L16.7018 43.438C17.2753 42.8656 17.7302 42.1856 18.0405 41.4371C18.3507 40.6886 18.5101 39.8862 18.5096 39.0759H14.3964ZM43.1891 34.9626C43.1891 35.5081 42.9724 36.0312 42.5867 36.4169C42.201 36.8026 41.6779 37.0193 41.1325 37.0193V41.1325C42.7688 41.1325 44.3382 40.4825 45.4952 39.3254C46.6523 38.1683 47.3023 36.599 47.3023 34.9626H43.1891ZM37.0192 20.5663C38.6556 20.5663 40.2249 21.2163 41.382 22.3734C42.5391 23.5305 43.1891 25.0998 43.1891 26.7361H47.3023C47.3023 25.3857 47.0364 24.0486 46.5196 22.801C46.0028 21.5534 45.2454 20.4198 44.2905 19.4649C43.3356 18.51 42.202 17.7526 40.9544 17.2358C39.7068 16.719 38.3696 16.453 37.0192 16.453V20.5663ZM2.05661 34.9626C2.05661 36.599 2.70665 38.1683 3.86372 39.3254C5.0208 40.4825 6.59013 41.1325 8.22648 41.1325V37.0193C7.68103 37.0193 7.15792 36.8026 6.77223 36.4169C6.38654 36.0312 6.16986 35.5081 6.16986 34.9626H2.05661Z"/>
</mask>
<path d="M4.11323 6.16991V4.11328C3.56778 4.11328 3.04467 4.32996 2.65898 4.71565C2.27329 5.10134 2.05661 5.62445 2.05661 6.16991H4.11323ZM26.7361 6.16991H28.7927C28.7927 5.62445 28.576 5.10134 28.1903 4.71565C27.8047 4.32996 27.2815 4.11328 26.7361 4.11328V6.16991ZM26.7361 18.5096V16.453C26.1906 16.453 25.6675 16.6697 25.2818 17.0554C24.8962 17.4411 24.6795 17.9642 24.6795 18.5096H26.7361ZM4.11323 8.22653H26.7361V4.11328H4.11323V8.22653ZM24.6795 6.16991V39.0759H28.7927V6.16991H24.6795ZM6.16986 34.9626V6.16991H2.05661V34.9626H6.16986ZM26.7361 20.5663H37.0192V16.453H26.7361V20.5663ZM43.1891 26.7361V34.9626H47.3023V26.7361H43.1891ZM28.7927 39.0759V18.5096H24.6795V39.0759H28.7927ZM38.4733 40.5299C38.0876 40.9155 37.5646 41.1321 37.0192 41.1321C36.4739 41.1321 35.9509 40.9155 35.5652 40.5299L32.6571 43.438C33.8141 44.5947 35.3832 45.2444 37.0192 45.2444C38.6552 45.2444 40.2243 44.5947 41.3813 43.438L38.4733 40.5299ZM35.5652 37.6219C35.9509 37.2363 36.4739 37.0197 37.0192 37.0197C37.5646 37.0197 38.0876 37.2363 38.4733 37.6219L41.3813 34.7138C40.2243 33.5571 38.6552 32.9073 37.0192 32.9073C35.3832 32.9073 33.8141 33.5571 32.6571 34.7138L35.5652 37.6219ZM13.7938 40.5299C13.4081 40.9155 12.8851 41.1321 12.3397 41.1321C11.7944 41.1321 11.2714 40.9155 10.8857 40.5299L7.97763 43.438C9.13465 44.5947 10.7037 45.2444 12.3397 45.2444C13.9758 45.2444 15.5448 44.5947 16.7018 43.438L13.7938 40.5299ZM10.8857 37.6219C11.2714 37.2363 11.7944 37.0197 12.3397 37.0197C12.8851 37.0197 13.4081 37.2363 13.7938 37.6219L16.7018 34.7138C15.5448 33.5571 13.9758 32.9073 12.3397 32.9073C10.7037 32.9073 9.13465 33.5571 7.97763 34.7138L10.8857 37.6219ZM38.4733 37.6219C38.8764 38.0229 39.0758 38.5473 39.0758 39.0759H43.1891C43.1891 37.5005 42.5865 35.9169 41.3813 34.7138L38.4733 37.6219ZM39.0758 39.0759C39.0765 39.346 39.0235 39.6137 38.9201 39.8632C38.8167 40.1128 38.6648 40.3394 38.4733 40.5299L41.3813 43.438C41.9548 42.8656 42.4097 42.1856 42.7199 41.4371C43.0302 40.6886 43.1896 39.8862 43.1891 39.0759H39.0758ZM32.906 37.0193H26.7361V41.1325H32.906V37.0193ZM35.5652 40.5299C35.3736 40.3394 35.2218 40.1128 35.1183 39.8632C35.0149 39.6137 34.962 39.346 34.9626 39.0759H30.8493C30.8493 40.6513 31.4519 42.2349 32.6571 43.438L35.5652 40.5299ZM34.9626 39.0759C34.9615 38.8057 35.0142 38.5379 35.1177 38.2883C35.2212 38.0387 35.3733 37.8121 35.5652 37.6219L32.6571 34.7138C32.0836 35.2862 31.6287 35.9661 31.3185 36.7147C31.0083 37.4632 30.8488 38.2656 30.8493 39.0759H34.9626ZM10.8857 40.5299C10.6942 40.3394 10.5423 40.1128 10.4389 39.8632C10.3354 39.6137 10.2825 39.346 10.2831 39.0759H6.16986C6.16986 40.6513 6.77245 42.2349 7.97763 43.438L10.8857 40.5299ZM10.2831 39.0759C10.282 38.8057 10.3348 38.5379 10.4382 38.2883C10.5417 38.0387 10.6938 37.8121 10.8857 37.6219L7.97763 34.7138C7.40412 35.2862 6.94922 35.9661 6.639 36.7147C6.32879 37.4632 6.16936 38.2656 6.16986 39.0759H10.2831ZM26.7361 37.0193H16.453V41.1325H26.7361V37.0193ZM13.7938 37.6219C14.1969 38.0229 14.3964 38.5473 14.3964 39.0759H18.5096C18.5096 37.5005 17.907 35.9169 16.7018 34.7138L13.7938 37.6219ZM14.3964 39.0759C14.397 39.346 14.344 39.6137 14.2406 39.8632C14.1372 40.1128 13.9853 40.3394 13.7938 40.5299L16.7018 43.438C17.2753 42.8656 17.7302 42.1856 18.0405 41.4371C18.3507 40.6886 18.5101 39.8862 18.5096 39.0759H14.3964ZM43.1891 34.9626C43.1891 35.5081 42.9724 36.0312 42.5867 36.4169C42.201 36.8026 41.6779 37.0193 41.1325 37.0193V41.1325C42.7688 41.1325 44.3382 40.4825 45.4952 39.3254C46.6523 38.1683 47.3023 36.599 47.3023 34.9626H43.1891ZM37.0192 20.5663C38.6556 20.5663 40.2249 21.2163 41.382 22.3734C42.5391 23.5305 43.1891 25.0998 43.1891 26.7361H47.3023C47.3023 25.3857 47.0364 24.0486 46.5196 22.801C46.0028 21.5534 45.2454 20.4198 44.2905 19.4649C43.3356 18.51 42.202 17.7526 40.9544 17.2358C39.7068 16.719 38.3696 16.453 37.0192 16.453V20.5663ZM2.05661 34.9626C2.05661 36.599 2.70665 38.1683 3.86372 39.3254C5.0208 40.4825 6.59013 41.1325 8.22648 41.1325V37.0193C7.68103 37.0193 7.15792 36.8026 6.77223 36.4169C6.38654 36.0312 6.16986 35.5081 6.16986 34.9626H2.05661Z" fill="white"/>
<path d="M24.6795 39.4759H28.7927V38.6759H24.6795V39.4759ZM2.05661 35.3626H6.16986V34.5626H2.05661V35.3626ZM37.4192 20.5663V16.453H36.6192V20.5663H37.4192ZM43.1891 35.3626H47.3023V34.5626H43.1891V35.3626ZM47.3023 26.3361H43.1891V27.1361H47.3023V26.3361ZM35.2823 40.2471L32.3743 43.1551L32.94 43.7208L35.848 40.8128L35.2823 40.2471ZM41.6642 43.1551L38.7561 40.2471L38.1904 40.8128L41.0985 43.7208L41.6642 43.1551ZM38.7561 37.9047L41.6642 34.9966L41.0985 34.4309L38.1904 37.339L38.7561 37.9047ZM32.3743 34.9966L35.2823 37.9047L35.848 37.339L32.94 34.4309L32.3743 34.9966ZM10.6029 40.2471L7.69479 43.1551L8.26047 43.7208L11.1685 40.8128L10.6029 40.2471ZM16.9847 43.1551L14.0766 40.2471L13.5109 40.8128L16.419 43.7208L16.9847 43.1551ZM14.0766 37.9047L16.9847 34.9966L16.419 34.4309L13.5109 37.339L14.0766 37.9047ZM7.69479 34.9966L10.6029 37.9047L11.1685 37.339L8.26047 34.4309L7.69479 34.9966ZM39.0758 39.4759H43.1891V38.6759H39.0758V39.4759ZM26.3361 37.0193V41.1325H27.1361V37.0193H26.3361ZM34.9626 38.6759H30.8493V39.4759H34.9626V38.6759ZM10.2831 38.6759H6.16986V39.4759H10.2831V38.6759ZM14.3964 39.4759H18.5096V38.6759H14.3964V39.4759ZM4.11323 6.16991V6.96991H4.91323V6.16991H4.11323ZM4.11323 4.11328V3.31328V4.11328ZM2.05661 6.16991H1.25661H2.05661ZM26.7361 6.16991H25.9361V6.96991H26.7361V6.16991ZM26.7361 4.11328V3.31328V4.11328ZM26.7361 18.5096V19.3096H27.5361V18.5096H26.7361ZM4.11323 8.22653H3.31323V9.02653H4.11323V8.22653ZM26.7361 8.22653V9.02653H27.5361V8.22653H26.7361ZM24.6795 6.16991V5.36991H23.8795V6.16991H24.6795ZM6.16986 34.9626H5.36986H6.16986ZM6.16986 6.16991H6.96986V5.36991H6.16986V6.16991ZM2.05661 34.9626H1.25661H2.05661ZM26.7361 20.5663H25.9361V21.3663H26.7361V20.5663ZM37.0192 16.453V15.653V16.453ZM43.1891 26.7361H43.9891H43.1891ZM47.3023 34.9626H48.1023H47.3023ZM47.3023 26.7361H46.5023H47.3023ZM28.7927 18.5096H29.5927V17.7096H28.7927V18.5096ZM38.4733 40.5299L37.9091 39.9627L37.9076 39.9642L38.4733 40.5299ZM35.5652 40.5299L36.1308 39.9641L36.1294 39.9627L35.5652 40.5299ZM32.6571 43.438L33.2227 42.8722L33.2223 42.8718L32.6571 43.438ZM41.3813 43.438L40.8162 42.8717L40.8157 42.8722L41.3813 43.438ZM35.5652 37.6219L36.1284 38.19L36.1308 38.1876L35.5652 37.6219ZM38.4733 37.6219L37.9076 38.1876L37.909 38.189L38.4733 37.6219ZM41.3813 34.7138L40.8157 35.2796L40.8161 35.28L41.3813 34.7138ZM32.6571 34.7138L33.2222 35.28L33.2227 35.2796L32.6571 34.7138ZM13.7938 40.5299L13.2296 39.9627L13.2282 39.9642L13.7938 40.5299ZM10.8857 40.5299L11.4513 39.9641L11.4499 39.9627L10.8857 40.5299ZM7.97763 43.438L8.54323 42.8722L8.54283 42.8718L7.97763 43.438ZM16.7018 43.438L16.1367 42.8717L16.1362 42.8722L16.7018 43.438ZM10.8857 37.6219L11.4489 38.19L11.4513 38.1876L10.8857 37.6219ZM13.7938 37.6219L13.2282 38.1876L13.2295 38.189L13.7938 37.6219ZM16.7018 34.7138L16.1362 35.2796L16.1366 35.28L16.7018 34.7138ZM7.97763 34.7138L8.54276 35.28L8.54323 35.2796L7.97763 34.7138ZM39.0758 39.0759H38.2758L38.2758 39.0777L39.0758 39.0759ZM43.1891 39.0759H42.3891V39.0764L43.1891 39.0759ZM32.906 37.0193H33.706V36.2193H32.906V37.0193ZM32.906 41.1325V41.9325H33.706V41.1325H32.906ZM34.9626 39.0759L35.7626 39.0777L35.7626 39.0727L34.9626 39.0759ZM30.8493 39.0759H31.6493V39.0754L30.8493 39.0759ZM10.2831 39.0759L11.0831 39.0777L11.0831 39.0727L10.2831 39.0759ZM6.16986 39.0759H6.96986L6.96986 39.0754L6.16986 39.0759ZM16.453 37.0193V36.2193H15.653V37.0193H16.453ZM16.453 41.1325H15.653V41.9325H16.453V41.1325ZM14.3964 39.0759H13.5964L13.5964 39.0777L14.3964 39.0759ZM18.5096 39.0759H17.7096V39.0764L18.5096 39.0759ZM41.1325 37.0193V36.2193H40.3325V37.0193H41.1325ZM41.1325 41.1325H40.3325V41.9325H41.1325V41.1325ZM8.22648 41.1325V41.9325H9.02648V41.1325H8.22648ZM8.22648 37.0193H9.02648V36.2193H8.22648V37.0193ZM4.91323 6.16991V4.11328H3.31323V6.16991H4.91323ZM4.11323 3.31328C3.35561 3.31328 2.62902 3.61425 2.0933 4.14997L3.22467 5.28134C3.46033 5.04568 3.77996 4.91328 4.11323 4.91328V3.31328ZM2.0933 4.14997C1.55757 4.68569 1.25661 5.41228 1.25661 6.16991H2.85661C2.85661 5.83663 2.989 5.517 3.22467 5.28134L2.0933 4.14997ZM2.05661 6.96991H4.11323V5.36991H2.05661V6.96991ZM26.7361 6.96991H28.7927V5.36991H26.7361V6.96991ZM29.5927 6.16991C29.5927 5.41228 29.2918 4.68569 28.756 4.14997L27.6247 5.28134C27.8603 5.517 27.9927 5.83663 27.9927 6.16991H29.5927ZM28.756 4.14997C28.2203 3.61425 27.4937 3.31328 26.7361 3.31328V4.91328C27.0694 4.91328 27.389 5.04568 27.6247 5.28134L28.756 4.14997ZM25.9361 4.11328V6.16991H27.5361V4.11328H25.9361ZM27.5361 18.5096V16.453H25.9361V18.5096H27.5361ZM26.7361 15.653C25.9785 15.653 25.2519 15.954 24.7162 16.4897L25.8475 17.6211C26.0832 17.3854 26.4028 17.253 26.7361 17.253V15.653ZM24.7162 16.4897C24.1804 17.0254 23.8795 17.752 23.8795 18.5096H25.4795C25.4795 18.1764 25.6119 17.8567 25.8475 17.6211L24.7162 16.4897ZM24.6795 19.3096H26.7361V17.7096H24.6795V19.3096ZM4.11323 9.02653H26.7361V7.42653H4.11323V9.02653ZM27.5361 8.22653V4.11328H25.9361V8.22653H27.5361ZM26.7361 3.31328H4.11323V4.91328H26.7361V3.31328ZM3.31323 4.11328V8.22653H4.91323V4.11328H3.31323ZM23.8795 6.16991V39.0759H25.4795V6.16991H23.8795ZM29.5927 39.0759V6.16991H27.9927V39.0759H29.5927ZM28.7927 5.36991H24.6795V6.96991H28.7927V5.36991ZM6.96986 34.9626V6.16991H5.36986V34.9626H6.96986ZM6.16986 5.36991H2.05661V6.96991H6.16986V5.36991ZM1.25661 6.16991V34.9626H2.85661V6.16991H1.25661ZM26.7361 21.3663H37.0192V19.7663H26.7361V21.3663ZM37.0192 15.653H26.7361V17.253H37.0192V15.653ZM25.9361 16.453V20.5663H27.5361V16.453H25.9361ZM42.3891 26.7361V34.9626H43.9891V26.7361H42.3891ZM48.1023 34.9626V26.7361H46.5023V34.9626H48.1023ZM29.5927 39.0759V18.5096H27.9927V39.0759H29.5927ZM28.7927 17.7096H24.6795V19.3096H28.7927V17.7096ZM23.8795 18.5096V39.0759H25.4795V18.5096H23.8795ZM37.9076 39.9642C37.672 40.1997 37.3524 40.3321 37.0192 40.3321V41.9321C37.7767 41.9321 38.5032 41.6312 39.0389 41.0957L37.9076 39.9642ZM37.0192 40.3321C36.686 40.3321 36.3664 40.1997 36.1308 39.9642L34.9996 41.0957C35.5353 41.6312 36.2617 41.9321 37.0192 41.9321V40.3321ZM32.0915 44.0038C33.3986 45.3104 35.1711 46.0444 37.0192 46.0444V44.4444C35.5953 44.4444 34.2297 43.8789 33.2227 42.8722L32.0915 44.0038ZM37.0192 46.0444C38.8674 46.0444 40.6399 45.3104 41.9469 44.0038L40.8157 42.8722C39.8087 43.8789 38.4431 44.4444 37.0192 44.4444V46.0444ZM36.1308 38.1876C36.3664 37.952 36.686 37.8197 37.0192 37.8197V36.2197C36.2617 36.2197 35.5353 36.5205 34.9996 37.0561L36.1308 38.1876ZM37.0192 37.8197C37.3524 37.8197 37.672 37.952 37.9076 38.1876L39.0389 37.0561C38.5032 36.5205 37.7767 36.2197 37.0192 36.2197V37.8197ZM41.9469 34.148C40.6399 32.8414 38.8674 32.1073 37.0192 32.1073V33.7073C38.4431 33.7073 39.8087 34.2729 40.8157 35.2796L41.9469 34.148ZM37.0192 32.1073C35.1711 32.1073 33.3986 32.8414 32.0915 34.148L33.2227 35.2796C34.2297 34.2729 35.5953 33.7073 37.0192 33.7073V32.1073ZM13.2282 39.9642C12.9925 40.1997 12.6729 40.3321 12.3397 40.3321V41.9321C13.0972 41.9321 13.8237 41.6312 14.3594 41.0957L13.2282 39.9642ZM12.3397 40.3321C12.0065 40.3321 11.6869 40.1997 11.4513 39.9642L10.3201 41.0957C10.8558 41.6312 11.5823 41.9321 12.3397 41.9321V40.3321ZM7.41203 44.0038C8.71907 45.3104 10.4916 46.0444 12.3397 46.0444V44.4444C10.9158 44.4444 9.55023 43.8789 8.54323 42.8722L7.41203 44.0038ZM12.3397 46.0444C14.1879 46.0444 15.9604 45.3104 17.2674 44.0038L16.1362 42.8722C15.1292 43.8789 13.7636 44.4444 12.3397 44.4444V46.0444ZM11.4513 38.1876C11.6869 37.952 12.0065 37.8197 12.3397 37.8197V36.2197C11.5823 36.2197 10.8558 36.5205 10.3201 37.0561L11.4513 38.1876ZM12.3397 37.8197C12.6729 37.8197 12.9925 37.952 13.2282 38.1876L14.3594 37.0561C13.8237 36.5205 13.0972 36.2197 12.3397 36.2197V37.8197ZM17.2674 34.148C15.9604 32.8414 14.1879 32.1073 12.3397 32.1073V33.7073C13.7636 33.7073 15.1292 34.2729 16.1362 35.2796L17.2674 34.148ZM12.3397 32.1073C10.4916 32.1073 8.71907 32.8414 7.41203 34.148L8.54323 35.2796C9.55023 34.2729 10.9158 33.7073 12.3397 33.7073V32.1073ZM37.909 38.189C38.154 38.4328 38.2758 38.7499 38.2758 39.0759H39.8758C39.8758 38.3448 39.5986 37.613 39.0375 37.0547L37.909 38.189ZM43.9891 39.0759C43.9891 37.2974 43.3085 35.5073 41.9465 34.1476L40.8161 35.28C41.8645 36.3266 42.3891 37.7036 42.3891 39.0759H43.9891ZM38.2758 39.0777C38.2762 39.2422 38.244 39.405 38.181 39.5569L39.6591 40.1695C39.803 39.8223 39.8767 39.4499 39.8758 39.0741L38.2758 39.0777ZM38.181 39.5569C38.1181 39.7089 38.0256 39.8468 37.9091 39.9627L39.0374 41.0971C39.3039 40.832 39.5152 40.5167 39.6591 40.1695L38.181 39.5569ZM41.9464 44.0042C42.5945 43.3575 43.1085 42.5892 43.459 41.7434L41.9809 41.1308C41.711 41.7821 41.3152 42.3737 40.8162 42.8717L41.9464 44.0042ZM43.459 41.7434C43.8095 40.8976 43.9897 39.9909 43.9891 39.0754L42.3891 39.0764C42.3895 39.7814 42.2508 40.4795 41.9809 41.1308L43.459 41.7434ZM32.906 36.2193H26.7361V37.8193H32.906V36.2193ZM26.7361 41.9325H32.906V40.3325H26.7361V41.9325ZM33.706 41.1325V37.0193H32.106V41.1325H33.706ZM36.1294 39.9627C36.0128 39.8468 35.9203 39.7089 35.8574 39.5569L34.3793 40.1695C34.5232 40.5167 34.7345 40.832 35.001 41.0971L36.1294 39.9627ZM35.8574 39.5569C35.7944 39.405 35.7622 39.2422 35.7626 39.0777L34.1626 39.0741C34.1617 39.4499 34.2354 39.8223 34.3793 40.1695L35.8574 39.5569ZM30.0493 39.0759C30.0493 40.8544 30.73 42.6445 32.0919 44.0042L33.2223 42.8718C32.1739 41.8252 31.6493 40.4482 31.6493 39.0759H30.0493ZM35.7626 39.0727C35.7619 38.9087 35.7939 38.7461 35.8568 38.5946L34.3787 37.982C34.2346 38.3297 34.1611 38.7027 34.1626 39.0791L35.7626 39.0727ZM35.8568 38.5946C35.9196 38.443 36.0119 38.3055 36.1284 38.19L35.002 37.0537C34.7346 37.3187 34.5228 37.6343 34.3787 37.982L35.8568 38.5946ZM32.092 34.1475C31.444 34.7943 30.93 35.5626 30.5794 36.4084L32.0575 37.021C32.3274 36.3697 32.7232 35.778 33.2222 35.28L32.092 34.1475ZM30.5794 36.4084C30.2289 37.2542 30.0488 38.1608 30.0493 39.0764L31.6493 39.0754C31.6489 38.3704 31.7876 37.6722 32.0575 37.021L30.5794 36.4084ZM11.4499 39.9627C11.3333 39.8468 11.2409 39.7089 11.1779 39.5569L9.69981 40.1695C9.84371 40.5168 10.055 40.832 10.3215 41.0971L11.4499 39.9627ZM11.1779 39.5569C11.1149 39.405 11.0827 39.2422 11.0831 39.0777L9.48311 39.0741C9.48225 39.4499 9.5559 39.8223 9.69981 40.1695L11.1779 39.5569ZM5.36986 39.0759C5.36986 40.8544 6.05047 42.6445 7.41243 44.0042L8.54283 42.8718C7.49443 41.8252 6.96986 40.4482 6.96986 39.0759H5.36986ZM11.0831 39.0727C11.0824 38.9087 11.1145 38.7461 11.1773 38.5946L9.69917 37.982C9.55506 38.3297 9.48162 38.7027 9.48311 39.0791L11.0831 39.0727ZM11.1773 38.5946C11.2401 38.443 11.3324 38.3055 11.4489 38.19L10.3225 37.0537C10.0552 37.3187 9.84328 37.6343 9.69917 37.982L11.1773 38.5946ZM7.4125 34.1475C6.76448 34.7943 6.25047 35.5626 5.89995 36.4084L7.37805 37.021C7.64796 36.3697 8.04376 35.778 8.54276 35.28L7.4125 34.1475ZM5.89995 36.4084C5.54943 37.2542 5.36929 38.1608 5.36986 39.0764L6.96986 39.0754C6.96942 38.3704 7.10814 37.6722 7.37805 37.021L5.89995 36.4084ZM26.7361 36.2193H16.453V37.8193H26.7361V36.2193ZM15.653 37.0193V41.1325H17.253V37.0193H15.653ZM16.453 41.9325H26.7361V40.3325H16.453V41.9325ZM13.2295 38.189C13.4746 38.4328 13.5964 38.7499 13.5964 39.0759H15.1964C15.1964 38.3447 14.9192 37.613 14.358 37.0547L13.2295 38.189ZM19.3096 39.0759C19.3096 37.2974 18.629 35.5073 17.267 34.1476L16.1366 35.28C17.185 36.3266 17.7096 37.7036 17.7096 39.0759H19.3096ZM13.5964 39.0777C13.5967 39.2422 13.5645 39.405 13.5016 39.5569L14.9797 40.1695C15.1236 39.8223 15.1972 39.4499 15.1964 39.0741L13.5964 39.0777ZM13.5016 39.5569C13.4386 39.7089 13.3462 39.8468 13.2296 39.9627L14.3579 41.0971C14.6244 40.832 14.8357 40.5168 14.9797 40.1695L13.5016 39.5569ZM17.267 44.0042C17.915 43.3575 18.429 42.5892 18.7795 41.7434L17.3014 41.1308C17.0315 41.7821 16.6357 42.3737 16.1367 42.8717L17.267 44.0042ZM18.7795 41.7434C19.13 40.8976 19.3102 39.9909 19.3096 39.0754L17.7096 39.0764C17.71 39.7814 17.5713 40.4795 17.3014 41.1308L18.7795 41.7434ZM42.3891 34.9626C42.3891 35.2959 42.2567 35.6155 42.021 35.8512L43.1524 36.9826C43.6881 36.4469 43.9891 35.7203 43.9891 34.9626H42.3891ZM42.021 35.8512C41.7854 36.0869 41.4657 36.2193 41.1325 36.2193V37.8193C41.8901 37.8193 42.6167 37.5183 43.1524 36.9826L42.021 35.8512ZM40.3325 37.0193V41.1325H41.9325V37.0193H40.3325ZM41.1325 41.9325C42.981 41.9325 44.7538 41.1982 46.0609 39.8911L44.9295 38.7597C43.9225 39.7668 42.5566 40.3325 41.1325 40.3325V41.9325ZM46.0609 39.8911C47.368 38.584 48.1023 36.8112 48.1023 34.9626H46.5023C46.5023 36.3868 45.9366 37.7527 44.9295 38.7597L46.0609 39.8911ZM37.0192 21.3663C38.4434 21.3663 39.8092 21.932 40.8163 22.9391L41.9477 21.8077C40.6406 20.5006 38.8677 19.7663 37.0192 19.7663V21.3663ZM40.8163 22.9391C41.8233 23.9461 42.3891 25.312 42.3891 26.7361H43.9891C43.9891 24.8876 43.2548 23.1148 41.9477 21.8077L40.8163 22.9391ZM48.1023 26.7361C48.1023 25.2807 47.8157 23.8395 47.2587 22.4948L45.7805 23.1071C46.257 24.2577 46.5023 25.4908 46.5023 26.7361H48.1023ZM47.2587 22.4948C46.7017 21.1502 45.8853 19.9284 44.8562 18.8992L43.7248 20.0306C44.6054 20.9112 45.3039 21.9566 45.7805 23.1071L47.2587 22.4948ZM44.8562 18.8992C43.827 17.87 42.6052 17.0537 41.2605 16.4967L40.6483 17.9749C41.7988 18.4515 42.8442 19.15 43.7248 20.0306L44.8562 18.8992ZM41.2605 16.4967C39.9159 15.9397 38.4747 15.653 37.0192 15.653V17.253C38.2646 17.253 39.4977 17.4983 40.6483 17.9749L41.2605 16.4967ZM1.25661 34.9626C1.25661 36.8112 1.99093 38.584 3.29804 39.8911L4.42941 38.7597C3.42236 37.7527 2.85661 36.3868 2.85661 34.9626H1.25661ZM3.29804 39.8911C4.60514 41.1982 6.37796 41.9325 8.22648 41.9325V40.3325C6.8023 40.3325 5.43646 39.7668 4.42941 38.7597L3.29804 39.8911ZM9.02648 41.1325V37.0193H7.42648V41.1325H9.02648ZM8.22648 36.2193C7.8932 36.2193 7.57358 36.0869 7.33791 35.8512L6.20654 36.9826C6.74227 37.5183 7.46886 37.8193 8.22648 37.8193V36.2193ZM7.33791 35.8512C7.10225 35.6155 6.96986 35.2959 6.96986 34.9626H5.36986C5.36986 35.7203 5.67082 36.4469 6.20654 36.9826L7.33791 35.8512Z" fill="white" mask="url(#path-1-inside-1_35_889)"/>
</svg>
