<svg width="15" height="15" viewBox="0 0 15 15" fill="none" xmlns="http://www.w3.org/2000/svg">
<path d="M7.39433 1.23242C4.00526 1.23242 1.23239 4.00529 1.23239 7.39436C1.23239 10.7834 4.00526 13.5563 7.39433 13.5563C10.7834 13.5563 13.5563 10.7834 13.5563 7.39436C13.5563 4.00529 10.7834 1.23242 7.39433 1.23242ZM7.39433 12.3239C4.67691 12.3239 2.46478 10.1118 2.46478 7.39436C2.46478 4.67695 4.67691 2.46481 7.39433 2.46481C10.1117 2.46481 12.3239 4.67695 12.3239 7.39436C12.3239 10.1118 10.1117 12.3239 7.39433 12.3239ZM10.2227 4.67078L6.16194 8.7315L4.566 7.14172L3.69717 8.01055L6.16194 10.4753L11.0915 5.54578L10.2227 4.67078Z" fill="#7069BC"/>
</svg>
