<svg width="41" height="41" viewBox="0 0 41 41" fill="none" xmlns="http://www.w3.org/2000/svg">
<path d="M21.833 7.99805L7.99805 21.833L0.706055 14.542L14.542 0.706055L21.833 7.99805ZM2.20117 14.542L2.55469 14.8955L7.64453 19.9863L7.99805 20.3398L20.3398 7.99805L19.9863 7.64453L14.8955 2.55469L14.542 2.20117L2.20117 14.542Z" fill="white" stroke="white"/>
<path d="M37.2794 26.707L37.2853 26.7129C37.9923 27.4043 38.5555 28.2293 38.9415 29.1396C39.3275 30.0499 39.5297 31.0279 39.5353 32.0166C39.5408 33.0054 39.3496 33.9858 38.9738 34.9004C38.5979 35.8149 38.044 36.6456 37.3448 37.3447C36.6457 38.0439 35.8151 38.5978 34.9005 38.9736C33.9859 39.3495 33.0055 39.5407 32.0167 39.5352C31.028 39.5296 30.0501 39.3274 29.1398 38.9414C28.2294 38.5553 27.4044 37.9922 26.713 37.2852L26.7072 37.2793L9.05872 19.6318L19.632 9.05859L37.2794 26.707ZM19.1017 10.376L10.3761 19.1016L9.84583 19.6328L10.3761 20.1631L27.1007 36.8857L27.1046 36.8906C28.4059 38.1709 30.161 38.8854 31.9865 38.8779C33.8118 38.8704 35.56 38.1413 36.8507 36.8506C38.1414 35.5599 38.8705 33.8116 38.8781 31.9863C38.8855 30.1609 38.171 28.4058 36.8907 27.1045L36.8859 27.1006L20.1632 10.376L19.6329 9.8457L19.1017 10.376Z" fill="white" stroke="white" stroke-width="1.5"/>
<path fill-rule="evenodd" clip-rule="evenodd" d="M15.9964 20.3597L23.9946 12.3604L36.356 24.7218L28.3578 32.721L15.9964 20.3597ZM18.9045 20.3597L28.3578 29.8119L33.4479 24.7218L23.9946 15.2695L18.9045 20.3597ZM4.36211 10.1804L11.9973 17.8146L10.5433 19.2686L2.90808 11.6334L4.36211 10.1804ZM7.99823 6.54431L15.6324 14.1785L14.1784 15.6336L6.54419 7.99835L7.99823 6.54431ZM11.6333 2.9082L19.2685 10.5434L17.8145 11.9975L10.1793 4.36224L11.6333 2.9082Z" fill="white"/>
<path fill-rule="evenodd" clip-rule="evenodd" d="M22.1313 28.9477C21.4742 29.6059 21.0742 30.192 20.9714 30.5005L19.0197 29.8496C19.2808 29.068 19.9708 28.2002 20.6773 27.4947C21.4095 26.7615 22.3154 26.0479 23.1709 25.6201L24.0913 27.4587C23.4928 27.758 22.7627 28.3174 22.1313 28.9477Z" fill="white"/>
</svg>
