<svg width="13" height="19" viewBox="0 0 13 19" fill="none" xmlns="http://www.w3.org/2000/svg">
<path fill-rule="evenodd" clip-rule="evenodd" d="M5.52839 9.92547L0.60956 0.673549C0.581302 0.620402 0.563788 0.562209 0.558018 0.502294C0.552249 0.442378 0.558338 0.381913 0.575936 0.32435C0.611479 0.208097 0.691746 0.110724 0.799081 0.053653C0.906417 -0.00341826 1.03203 -0.0155132 1.14828 0.0200288C1.20584 0.0376275 1.25938 0.0663916 1.30582 0.104679C1.35227 0.142966 1.39072 0.190027 1.41898 0.243174L6.33827 9.49509L7.03585 9.12384C7.24846 9.01081 7.48126 8.94077 7.72095 8.91771C7.96063 8.89466 8.20251 8.91905 8.43277 8.98949C8.66303 9.05993 8.87715 9.17504 9.06292 9.32824C9.24868 9.48145 9.40245 9.66974 9.51544 9.88238L9.81244 10.4411L12.9612 15.0492L8.95627 17.1781L7.56889 14.4359L6.75123 14.8498L8.14685 17.609L6.42994 18.5215L4.36973 13.3341L4.07319 12.7758C3.96014 12.5633 3.89007 12.3305 3.86698 12.0908C3.8439 11.8512 3.86825 11.6093 3.93865 11.379C4.00904 11.1488 4.1241 10.9346 4.27726 10.7489C4.43042 10.5631 4.61867 10.4093 4.83127 10.2963L5.52839 9.92547ZM7.46577 9.93372L5.26119 11.1057C5.15489 11.1622 5.06076 11.2391 4.98418 11.332C4.9076 11.4249 4.85007 11.5319 4.81487 11.6471C4.77968 11.7622 4.7675 11.8831 4.77904 12.003C4.79058 12.1228 4.82562 12.2392 4.88214 12.3455L5.17869 12.9037L9.00256 10.8705L8.70556 10.3128C8.64905 10.2065 8.57215 10.1123 8.47926 10.0358C8.38637 9.95917 8.2793 9.90164 8.16417 9.86645C8.04905 9.83125 7.92811 9.81907 7.80828 9.83061C7.68845 9.84216 7.57206 9.87719 7.46577 9.93372Z" fill="#7069BC"/>
<path d="M3.56033 14.3979C3.48258 14.3045 3.37092 14.2458 3.24991 14.2347C3.12889 14.2236 3.00843 14.261 2.915 14.3388H2.91592L2.91087 14.3424L2.88246 14.3644C2.84129 14.3952 2.79926 14.4249 2.75642 14.4533C2.64275 14.529 2.47317 14.6321 2.255 14.7357C1.69423 15.0052 1.08051 15.1466 0.458333 15.1495C0.336776 15.1495 0.220197 15.1978 0.134243 15.2838C0.0482886 15.3697 0 15.4863 0 15.6079C0 15.7294 0.0482886 15.846 0.134243 15.932C0.220197 16.0179 0.336776 16.0662 0.458333 16.0662C1.21688 16.0633 1.96525 15.8915 2.64917 15.5634C2.8625 15.4624 3.06835 15.3463 3.26517 15.216C3.33885 15.1667 3.41071 15.1147 3.48058 15.0602L3.49433 15.0496L3.49892 15.046L3.50029 15.0441H3.50121L3.50167 15.0432C3.59499 14.9654 3.6536 14.8537 3.6646 14.7327C3.6756 14.6117 3.6381 14.4913 3.56033 14.3979ZM4.50633 16.7285C4.53975 16.7786 4.56297 16.8347 4.57467 16.8938C4.58637 16.9528 4.58633 17.0136 4.57454 17.0727C4.56275 17.1317 4.53944 17.1878 4.50596 17.2379C4.47247 17.2879 4.42946 17.3308 4.37937 17.3642L4.37846 17.3651L4.37662 17.366L4.37204 17.3688L4.35783 17.378C4.27848 17.4284 4.19794 17.477 4.11629 17.5237C3.95542 17.6158 3.72671 17.7382 3.45171 17.8601C2.91087 18.1008 2.15462 18.3579 1.375 18.3579C1.25344 18.3579 1.13686 18.3096 1.05091 18.2236C0.964955 18.1377 0.916667 18.0211 0.916667 17.8995C0.916667 17.778 0.964955 17.6614 1.05091 17.5755C1.13686 17.4895 1.25344 17.4412 1.375 17.4412C1.96992 17.4412 2.58958 17.24 3.07954 17.0223C3.3348 16.9084 3.5825 16.7783 3.82112 16.6327C3.83449 16.6248 3.84764 16.6166 3.86054 16.608L3.86971 16.6025L3.87062 16.6015C3.9207 16.5681 3.97687 16.5449 4.03592 16.5332C4.09497 16.5215 4.15574 16.5216 4.21478 16.5333C4.27381 16.5451 4.32994 16.5684 4.37997 16.6019C4.42999 16.6354 4.47293 16.6784 4.50633 16.7285Z" fill="black"/>
</svg>
