<svg width="44" height="44" viewBox="0 0 44 44" fill="none" xmlns="http://www.w3.org/2000/svg">
<path d="M40.0759 12.3114L31.8494 16.4247M31.8494 16.4247L30.821 16.9388L21.5662 21.5662M31.8494 16.4247V23.6229M31.8494 16.4247L12.3114 6.14156M21.5662 21.5662L3.05662 12.3114M21.5662 21.5662V41.1042M28.9248 3.84225L33.0381 6.00171C37.4619 8.32364 39.6748 9.48357 40.9047 11.571C42.1325 13.6565 42.1325 16.254 42.1325 21.447V21.6876C42.1325 26.8785 42.1325 29.476 40.9047 31.5614C39.6748 33.6489 37.4619 34.8109 33.0381 37.1328L28.9248 39.2902C25.3134 41.1844 23.5077 42.1325 21.5662 42.1325C19.6248 42.1325 17.8191 41.1864 14.2076 39.2902L10.0944 37.1308C5.67059 34.8088 3.45767 33.6489 2.2278 31.5614C1 29.476 1 26.8785 1 21.6896V21.449C1 16.256 1 13.6585 2.2278 11.5731C3.45767 9.48563 5.67059 8.32364 10.0944 6.00377L14.2076 3.84431C17.8191 1.9481 19.6248 1 21.5662 1C23.5077 1 25.3134 1.94605 28.9248 3.84225Z" stroke="white" stroke-width="2" stroke-linecap="round"/>
</svg>
