<svg width="13" height="13" viewBox="0 0 13 13" fill="none" xmlns="http://www.w3.org/2000/svg">
<path d="M6.16194 0C2.77287 0 0 2.77287 0 6.16194C0 9.551 2.77287 12.3239 6.16194 12.3239C9.551 12.3239 12.3239 9.551 12.3239 6.16194C12.3239 2.77287 9.551 0 6.16194 0ZM6.16194 11.0915C3.44452 11.0915 1.23239 8.87935 1.23239 6.16194C1.23239 3.44452 3.44452 1.23239 6.16194 1.23239C8.87935 1.23239 11.0915 3.44452 11.0915 6.16194C11.0915 8.87935 8.87935 11.0915 6.16194 11.0915ZM8.99027 3.43836L4.92955 7.49908L3.33361 5.9093L2.46478 6.77813L4.92955 9.24291L9.8591 4.31336L8.99027 3.43836Z" fill="#7069BC"/>
</svg>
