<svg width="30" height="30" viewBox="0 0 30 30" fill="none" xmlns="http://www.w3.org/2000/svg">
<path d="M2.07617 0.5H20.7578L20.9141 0.507812C21.2747 0.544128 21.6135 0.704319 21.8721 0.962891C22.1675 1.25832 22.3342 1.65841 22.335 2.07617V6.72754H26.9863C27.4041 6.72829 27.8042 6.89504 28.0996 7.19043C28.3582 7.449 28.5184 7.78775 28.5547 8.14844L28.5625 8.30469V26.9863L28.5547 27.1416C28.5184 27.5023 28.3582 27.841 28.0996 28.0996C27.8042 28.395 27.4041 28.5618 26.9863 28.5625H8.30469C7.88673 28.5619 7.48597 28.3952 7.19043 28.0996C6.89504 27.8042 6.72829 27.4041 6.72754 26.9863V22.335H2.07617L1.9209 22.3271C1.56019 22.2909 1.22149 22.1306 0.962891 21.8721C0.704319 21.6135 0.544128 21.2747 0.507812 20.9141L0.5 20.7578V2.07617L0.507812 1.9209C0.544101 1.56016 0.704286 1.2215 0.962891 0.962891C1.2215 0.704286 1.56016 0.544101 1.9209 0.507812L2.07617 0.5ZM22.335 20.7588C22.3342 21.1765 22.1675 21.5767 21.8721 21.8721C21.5765 22.1676 21.1758 22.3343 20.7578 22.335H7.80371V27.4863H27.4863V7.80371H22.335V20.7588ZM1.57617 21.2588H10.8799V15.0693H1.57617V21.2588ZM11.9551 21.2588H21.2588V15.0693H11.9551V21.2588ZM1.57617 13.9932H10.8799V7.80371H1.57617V13.9932ZM11.9551 13.9932H21.2588V7.80371H11.9551V13.9932ZM1.57617 6.72754H21.2588V1.57617H1.57617V6.72754Z" fill="black" stroke="white"/>
</svg>
