<svg width="27" height="23" viewBox="0 0 27 23" fill="none" xmlns="http://www.w3.org/2000/svg">
<path d="M17.3573 9.0683C13.939 12.6485 10.5193 21.4365 10.5193 21.4365C10.5193 21.4365 5.63401 9.0683 0.750122 6.21326" stroke="white" stroke-width="1.5" stroke-linecap="round" stroke-linejoin="round"/>
<path d="M24.9633 1.47611L25.5529 7.59861C25.9349 11.5705 22.958 15.1064 18.9862 15.4898C15.089 15.8634 11.5586 13.0153 11.1836 9.11817C11.0942 8.19146 11.1883 7.25622 11.4605 6.36588C11.7326 5.47553 12.1775 4.64752 12.7697 3.92912C13.3619 3.21073 14.0898 2.61603 14.9118 2.17899C15.7339 1.74196 16.634 1.47114 17.5607 1.38201L24.0873 0.753703C24.1923 0.743586 24.2982 0.75425 24.399 0.785084C24.4999 0.815918 24.5937 0.866319 24.675 0.933406C24.7564 1.00049 24.8237 1.08295 24.8732 1.17607C24.9226 1.26919 24.9533 1.37115 24.9633 1.47611Z" stroke="white" stroke-width="1.5" stroke-linecap="round" stroke-linejoin="round"/>
</svg>
